/* XPM */
static char *result[] = {
/* columns rows colors chars-per-pixel */
"128 64 172 2 ",
"   c #4F2913",
".  c #502D18",
"X  c #4F311E",
"o  c #53321E",
"O  c #56321C",
"+  c #4F3625",
"@  c #543523",
"#  c #543624",
"$  c #553726",
"%  c #553827",
"&  c #5A3B27",
"*  c #5E3B25",
"=  c #573928",
"-  c #563B2A",
";  c #563D2C",
":  c #573C2D",
">  c #573D2D",
",  c #573E2D",
"<  c #573E2E",
"1  c #593D2A",
"2  c #573F30",
"3  c #583F30",
"4  c #5C402D",
"5  c #584030",
"6  c #5B4231",
"7  c #584032",
"8  c #594032",
"9  c #584132",
"0  c #594233",
"q  c #5E4532",
"w  c #594234",
"e  c #594334",
"r  c #594335",
"t  c #5A4336",
"y  c #5A4436",
"u  c #5A4437",
"i  c #5A4537",
"p  c #5A4637",
"a  c #574739",
"s  c #56463A",
"d  c #57473A",
"f  c #5A4538",
"g  c #5A4638",
"h  c #5A4639",
"j  c #5B4639",
"k  c #5A4739",
"l  c #5B4739",
"z  c #5B473A",
"x  c #5B473B",
"c  c #56483B",
"v  c #57483B",
"b  c #57483C",
"n  c #57493C",
"m  c #5B483A",
"M  c #5B483B",
"N  c #5C4939",
"B  c #5D493A",
"V  c #5C4A3B",
"C  c #5D4A3B",
"Z  c #5B483C",
"A  c #5B493C",
"S  c #594A3C",
"D  c #594A3D",
"F  c #5A4A3D",
"G  c #594A3E",
"H  c #594B3E",
"J  c #5C493D",
"K  c #5C4A3E",
"L  c #5C4B3E",
"P  c #5C4B3F",
"I  c #624937",
"U  c #614A38",
"Y  c #644E3D",
"T  c #5C4B40",
"R  c #5C4D41",
"E  c #5D4D41",
"W  c #5D4D42",
"Q  c #5D4E42",
"!  c #5D4E43",
"~  c #5D4F43",
"^  c #5E4E43",
"/  c #5E4F44",
"(  c #5E4F45",
")  c #5D5044",
"_  c #5E5145",
"`  c #5C5147",
"'  c #5F5046",
"]  c #5E5146",
"[  c #5F5146",
"{  c #5C5247",
"}  c #5D5247",
"|  c #5D5248",
" . c #5F5248",
".. c #5F5348",
"X. c #5F5349",
"o. c #5E554A",
"O. c #5F564B",
"+. c #5C554C",
"@. c #5F574C",
"#. c #655444",
"$. c #665444",
"%. c #675544",
"&. c #61554C",
"*. c #60574C",
"=. c #61564D",
"-. c #60574D",
";. c #62574E",
":. c #60584D",
">. c #60594D",
",. c #615A4E",
"<. c #615A4F",
"1. c #615B4F",
"2. c #635951",
"3. c #655C55",
"4. c #655D56",
"5. c #665E57",
"6. c #665F58",
"7. c #666057",
"8. c #6B6256",
"9. c #6A6357",
"0. c #6C6254",
"q. c #6C6255",
"w. c #6C6355",
"e. c #6D6457",
"r. c #676159",
"t. c #676259",
"y. c #68625A",
"u. c #68635A",
"i. c #69635B",
"p. c #69645B",
"a. c #6D6558",
"s. c #69645C",
"d. c #6A645C",
"f. c #6A655C",
"g. c #6B655D",
"h. c #6A665C",
"j. c #6B665D",
"k. c #6B675D",
"l. c #6B675E",
"z. c #6C665E",
"x. c #6C675E",
"c. c #6C675F",
"v. c #6C685E",
"b. c #6C685F",
"n. c #6D685F",
"m. c #6D695F",
"M. c #706A5E",
"N. c #6D6960",
"B. c #6F6A61",
"V. c #716C60",
"C. c #726D61",
"Z. c #726E62",
"A. c #746F62",
"S. c #746F63",
"D. c #716D64",
"F. c #746F64",
"G. c #726E69",
"H. c #737067",
"J. c #747064",
"K. c #757065",
"L. c #767469",
"P. c #7B786F",
"I. c #7C7970",
"U. c #85837A",
"Y. c #868579",
"T. c #86847B",
"R. c #88877B",
"E. c #918F88",
"W. c #929088",
"Q. c #94928B",
"!. c #99978F",
"~. c None",
/* pixels */
"& & & & & & & & & & & & & & & ~.~.~.& & & & & & & & & & & & & & & & & & & & & & & & & & & & & & ~.& & & & & & & & & & & & & & & & & & & & & & & & & & & & & & & ~.& & & & & & & & & & & & & & & & & & & & & & & & & & & & & & & ~.& & & & & & & & & & & & & & & ",
"Y.Y.Y.Y.Y.Y.Y.Y.Y.Y.Y.Y.Y.Y.R.& ~.4 A.V.M.M.Y.Y.Y.Y.Y.Y.Y.Y.Y.Y.Y.Y.Y.Y.Y.Y.Y.Y.Y.Y.Y.Y.Y.Y.R.R.q Y.Y.Y.Y.Y.Y.Y.Y.Y.Y.Y.Y.Y.Y.Y.Y.Y.Y.Y.Y.Y.Y.Y.Y.Y.Y.Y.Y.Y.R.R.q Y.Y.Y.Y.Y.Y.Y.Y.Y.Y.Y.Y.Y.Y.Y.Y.Y.Y.Y.Y.Y.Y.Y.Y.Y.Y.Y.Y.Y.R.R.q Y.Y.Y.Y.Y.Y.Y.Y.Y.Y.Y.Y.Y.Y.Y.",
"Y.Y.Y.Y.Y.Y.Y.Y.Y.Y.Y.Y.Y.Y.Y.R.Y Z.C.V.Y.Y.Y.Y.Y.Y.Y.Y.Y.Y.Y.Y.Y.Y.Y.Y.Y.Y.Y.Y.Y.Y.Y.Y.Y.Y.Y.R.I Y.Y.Y.Y.Y.Y.Y.Y.Y.Y.Y.Y.Y.Y.Y.Y.Y.Y.Y.Y.Y.Y.Y.Y.Y.Y.Y.Y.Y.Y.R.I Y.Y.Y.Y.Y.Y.Y.Y.Y.Y.Y.Y.Y.Y.Y.Y.Y.Y.Y.Y.Y.Y.Y.Y.Y.Y.Y.Y.Y.Y.R.I Y.Y.Y.Y.Y.Y.Y.Y.Y.Y.Y.Y.Y.Y.Y.",
"Y.Y.Y.Y.Y.Y.Y.Y.Y.Y.Y.Y.Y.Y.Y.Y.U 9.9.Y.Y.Y.Y.Y.Y.Y.Y.Y.Y.Y.Y.Y.Y.Y.Y.Y.Y.Y.Y.Y.Y.Y.Y.Y.Y.Y.Y.Y.%.Y.Y.Y.Y.Y.Y.Y.Y.Y.Y.Y.Y.Y.Y.Y.Y.Y.Y.Y.Y.Y.Y.Y.Y.Y.Y.Y.Y.Y.Y.Y.%.Y.Y.Y.Y.Y.Y.Y.Y.Y.Y.Y.Y.Y.Y.Y.Y.Y.Y.Y.Y.Y.Y.Y.Y.Y.Y.Y.Y.a.e.w.%.Y.Y.Y.Y.Y.Y.Y.Y.Y.Y.Y.Y.Y.Y.Y.",
"E.E.E.E.E.E.E.E.E.E.E.W.Q.!.!.!.$.Q.!.!.!.Q.Q.Q.Q.Q.Q.Q.Q.Q.Q.Q.E.E.E.E.E.E.E.E.E.E.E.W.Q.!.!.!.$.Q.!.!.!.Q.Q.Q.Q.Q.Q.Q.Q.Q.Q.Q.E.E.E.E.E.E.E.E.E.E.E.W.Q.!.!.!.$.Q.!.!.!.Q.Q.Q.Q.Q.Q.Q.Q.Q.Q.Q.E.E.E.E.E.E.E.E.E.E.E.W.8.0.q.K.$.Q.!.!.!.Q.Q.Q.Q.Q.Q.Q.Q.Q.Q.Q.",
"m.m.m.n.n.n.n.n.n.n.m.m.m.m.m.n.6 n.n.n.v.n.n.n.n.n.x.v.v.v.v.v.m.m.m.n.n.n.n.n.n.n.m.m.m.m.m.n.6 n.n.n.v.n.n.n.n.n.x.v.v.v.v.v.m.m.m.n.n.n.n.n.n.n.m.m.m.m.m.n.6 n.n.n.v.n.n.n.n.n.x.v.v.v.v.v.m.m.m.n.n.n.n.n.n.n.m.m.U.0.J.F.6 n.n.n.v.n.n.n.n.n.x.v.v.v.v.v.",
"n.n.n.n.n.n.n.n.n.n.n.n.n.m.n.n.6 n.n.v.v.v.n.n.n.v.x.x.x.x.x.x.n.n.n.n.n.n.n.n.n.n.n.n.n.m.n.n.6 n.n.v.v.v.n.n.n.v.x.x.x.x.x.x.n.n.n.n.n.n.n.n.n.n.n.n.n.m.n.n.6 n.n.v.v.v.n.n.n.v.x.x.x.x.x.x.n.n.n.n.n.n.n.n.n.n.n.n.n.I.F.S.6 n.n.v.v.v.n.n.n.v.x.x.x.x.x.x.",
"n.n.n.n.n.n.n.n.v.v.v.v.v.v.x.x.6 n.v.v.x.x.v.v.v.x.x.x.x.x.x.x.n.n.n.n.n.n.n.n.v.v.v.v.v.v.x.x.6 n.v.v.x.x.v.v.v.x.x.x.x.x.x.x.n.n.n.n.n.n.n.n.v.v.v.v.v.v.x.x.6 n.v.v.x.x.v.v.v.x.x.x.x.x.x.x.n.n.n.n.n.n.n.n.v.v.v.v.n.n.P.S.6 n.v.v.x.x.v.v.v.x.x.x.x.x.x.x.",
"n.v.v.v.v.v.v.v.v.v.v.x.x.x.x.x.6 x.x.x.x.x.k.k.x.x.x.x.x.z.j.j.n.v.v.v.v.v.v.v.v.v.v.x.x.x.x.x.6 x.x.x.x.x.k.k.x.x.x.x.x.z.j.j.n.v.v.v.v.v.v.v.v.v.v.x.x.x.x.x.6 x.x.x.x.x.k.k.x.x.x.x.x.z.j.j.n.v.v.v.v.v.v.v.v.v.v.x.x.x.x.I.6 x.x.x.x.x.k.k.x.x.x.x.x.z.j.j.",
"x.x.x.x.x.x.x.x.x.x.x.k.k.k.k.k.6 j.j.j.j.j.j.j.j.j.j.j.j.j.j.j.x.x.x.x.x.x.x.x.x.x.x.k.k.k.k.k.6 j.j.j.j.j.j.j.j.j.j.j.j.j.j.j.x.x.x.x.x.x.x.x.x.x.x.k.k.k.k.k.6 j.j.j.j.j.j.j.j.j.j.j.j.j.j.j.x.x.x.x.x.x.x.x.x.x.x.k.k.k.k.k.6 j.j.j.j.j.j.j.j.j.j.j.j.j.j.j.",
"k.j.j.j.j.j.j.j.j.j.j.j.j.j.j.j.6 j.j.j.j.j.g.g.f.f.f.f.h.h.h.h.k.j.j.j.j.j.j.j.j.j.j.j.j.j.j.j.6 j.j.j.j.j.g.g.f.f.f.f.h.h.h.h.k.j.j.j.j.j.j.f.j.j.j.j.j.j.j.j.6 j.j.j.j.j.g.g.f.f.f.f.h.h.h.h.k.j.j.j.j.j.j.j.j.j.j.j.j.j.j.j.6 j.j.j.j.j.g.g.f.f.f.f.h.h.h.h.",
"f.f.f.f.f.f.f.f.f.f.f.f.g.g.g.g.1 g.g.f.d.d.d.d.d.d.d.d.f.f.f.f.f.f.f.f.f.f.f.f.f.f.f.f.g.g.g.g.1 g.g.f.d.d.d.d.d.d.d.d.f.f.f.f.f.f.f.f.f.f.f.@.f.f.f.f.g.g.g.g.1 g.g.f.d.d.d.d.d.d.d.d.f.f.f.f.f.f.f.f.f.f.f.f.f.f.f.f.g.g.g.g.1 g.g.f.d.d.d.d.d.d.d.d.f.f.f.f.",
"f.f.f.f.f.f.f.f.f.f.f.f.f.f.d.f.o p.p.p.p.p.p.p.p.p.p.p.p.p.p.p.f.f.f.f.f.f.f.f.f.f.f.f.f.f.d.f.o p.p.p.p.p.p.p.p.p.p.p.p.p.p.p.f.f.f.f.f.f.f.B.:.*.f.f.f.f.d.f.o p.p.p.p.p.p.p.p.p.p.p.p.p.p.p.f.f.f.f.f.f.f.f.f.f.f.f.f.f.d.f.o p.p.p.p.p.p.p.p.p.p.p.p.p.p.p.",
"p.p.d.p.p.p.p.p.p.p.p.p.p.p.p.p.o i.i.i.i.i.i.p.p.p.p.p.p.p.p.p.p.p.d.p.p.p.p.p.p.p.p.p.p.p.p.p.o i.i.i.i.i.i.p.p.p.p.p.p.p.p.p.p.p.d.p.p.p.p.u.l.n.-.f.f.p.p.p.o i.i.i.i.i.i.p.p.p.p.p.p.p.p.p.p.p.d.p.p.p.p.p.p.p.p.p.p.p.p.p.o i.i.i.i.i.i.p.p.p.p.p.p.p.p.p.",
"i.i.i.i.i.i.i.i.i.i.i.i.i.i.u.u.o u.u.u.u.u.u.u.u.u.u.u.u.u.i.i.i.i.i.i.i.i.i.i.i.i.i.i.i.i.u.u.o u.u.u.u.u.u.u.u.u.u.u.u.u.i.i.i.i.i.i.i.i.i.i.u.u.N.@.O.i.u.u.o u.u.u.u.u.u.u.u.u.u.u.u.u.i.i.i.i.i.i.i.i.i.i.i.i.i.i.i.i.u.u.o u.u.u.u.u.u.u.u.u.u.u.u.u.i.i.",
"t.t.t.t.t.t.t.y.t.y.y.y.u.u.u.y.o y.y.y.y.y.y.y.y.y.u.u.y.u.u.u.t.t.t.t.t.t.t.y.t.y.y.y.u.u.u.y.  y.y.y.y.y.y.y.y.y.u.u.y.u.u.u.t.t.t.t.t.t.t.y.t.y.n.O.O.O.v d o y.y.y.y.y.y.y.y.y.u.u.y.u.u.u.t.t.t.t.t.t.t.y.t.y.y.y.u.u.u.y.o y.y.y.y.y.y.y.y.y.u.u.y.u.u.u.",
"r.r.r.r.r.r.r.r.r.r.r.r.r.r.r.r.o r.r.r.r.r.r.r.r.r.r.r.r.r.r.r.r.r.r.r.r.r.r.r.r.r.r.r.r.u.u.    r.r.r.r.r.r.r.r.r.r.r.r.r.r.r.r.r.r.r.r.r.r.r.r.y.o.O.O.c s b o r.r.r.r.r.r.r.r.r.r.r.r.r.r.r.r.r.r.r.r.r.r.r.r.r.r.r.r.r.r.r.o r.r.r.r.r.r.r.r.r.r.r.r.r.r.r.",
"r.r.r.r.r.r.r.r.r.r.r.r.r.r.r.r.  r.r.r.r.r.r.r.r.r.r.r.r.r.r.r.r.r.r.r.r.r.r.r.r.r.r.r.u.u.  D G   r.r.r.r.r.r.r.r.r.r.r.r.r.r.r.r.r.r.r.r.r.r.+.{             {   r.r.r.r.r.r.r.r.r.r.r.r.r.r.r.r.r.r.r.r.r.r.r.r.r.r.r.r.r.r.  r.r.r.r.r.r.r.r.r.r.r.r.r.r.r.",
"                                {                                                           S S F H                                                 { { { { { { { {                                                             {                               ",
"{ { { { { { { { { { { { { { { { { { { { { { { X ` ` { } } } } | { { { { { { { { { { { { { { { { { { { { { { { X ` ` { } } } } | { { { { { { { { { { { { { { { { { { { { { { { X ` ` { } } } } | { { { { { { { { { { { { { { { { { { { { { { { X ` ` { } } } } | ",
"{ { { { { { { { { { { { { { { { { { { { { { { X { { } } } } } | { { { { { { { { { { { { { { { { { { { { { { { X { { } } } } } | { { { { { { { { { { { { { { { { { { { { { { { X { { } } } } } | { { { { { { { { { { { { { { { { { { { { { { { X { { } } } } } | ",
"{ { { { { { { { { { { { { { { { { { { { { { { + { { } } } } } | { { { { { { { { { { { { { { { { { { { { { { { + { { } } } } } | { { { { { { { { { { { { { { { { { { { { { { { + { { } } } } } | { { { { { { { { { { { { { { { { { { { { { { { + { { } } } } } | ",
"{ { { { { { { { { { { { { { { { { { { { { { { + { { { } } } } | { { { { { { { { { { { { { { { { { { { { { { { + { { { } } } } | { { { { { { { { { { { { { { { { { { { { { { { + { { { } } } } | { { { { { { { { { { { { { { { { { { { { { { { + { { { } } } } | ",
"{ { { { { { { { { { { { { { { { { { { { { { { + { { { } } } } | { { { { { { { { { { { { { { { { { { { { { { { + { { { } } } } | { { { { { { { { { { { { { { { { { { { { { { { + { { { } } } } | { { { { { { { { { { { { { { { { { { { { { { { + { { { } } } } | ",
"{ { { { { { { { { { { { { { { { { { { { { { { + ` ` { } } } } } { { { { { { { { { { { { { { { { { { { { { { { + ` ` { } } } } } { { { { { { { { { { { { { { { { { { { { { { { + ` ` { } } } } } { { { { { { { { { { { { { { { { { { { { { { { + ` ` { } } } } } ",
"r.r.r.r.r.r.r.r.r.r.r.r.r.r.r.r.r.r.r.r.r.r.r.9 r.r.r.r.r.r.r.r.r.r.r.r.r.r.r.r.r.r.r.r.r.r.r.r.r.r.r.r.r.r.r.9 r.r.r.r.r.r.r.r.r.r.r.r.r.r.r.r.r.r.r.r.r.r.r.r.r.r.r.r.r.r.r.9 r.r.r.r.r.r.r.r.r.r.r.r.r.r.r.r.r.r.r.r.r.r.r.r.r.r.r.r.r.r.r.9 r.r.r.r.r.r.r.r.",
"r.r.r.r.r.r.r.r.r.r.r.r.r.r.r.r.r.r.r.r.r.r.r.# r.r.r.r.r.r.r.r.r.r.r.r.r.r.r.r.r.r.r.r.r.r.r.r.r.r.r.r.r.r.r.# r.r.r.r.r.r.r.r.r.r.r.r.r.r.r.r.r.r.r.r.r.r.r.r.r.r.r.r.r.r.r.# r.r.r.r.r.r.r.r.r.r.r.r.r.r.r.r.r.r.r.r.r.r.r.r.r.r.r.r.r.r.r.# r.r.r.r.r.r.r.r.",
"] ] ] ] ] E E E ] ] ] X.X.X.X.X.X.X.X.9 9 ; - $ % 3 X.X.X.X.X.X.] ] ] ] ] E E E ] ] ] X.X.X.X.X.X.X.X.9 9 ; - $ % 3 X.X.X.X.X.X.] ] ] ] ] E E E ] ] ] X.X.X.X.X.X.X.X.9 9 ; - $ % 3 X.X.X.X.X.X.] ] ] ] ] E E E ] ] ] X.X.X.X.X.X.X.X.9 9 ; - $ % 3 X.X.X.X.X.X.",
"n.n.n.n.n.n.E c.c.c.c.c.c.c.c.c.c.c.c.c.c.c.c.c.c.c.c.c.c.c.c.c.n.n.n.n.n.n.E G.G.G.G.G.G.G.G.G.G.G.G.G.G.G.G.G.G.G.G.G.G.G.G.G.G.G.G.G.G.G.E c.c.c.c.c.c.c.c.c.c.c.c.c.c.c.c.c.c.c.c.c.c.c.c.c.n.n.n.n.n.n.E c.c.c.c.c.c.c.c.c.c.c.c.c.c.c.c.c.c.c.c.c.c.c.c.c.",
"r.r.r.r.r.r.E r.r.r.r.r.r.r.r.r.r.r.r.r.r.r.r.r.r.r.r.r.r.r.r.r.r.r.r.r.r.r.E r.r.r.r.r.r.r.r.r.r.r.r.r.r.r.r.r.r.r.r.r.r.r.r.r.r.r.r.r.r.r.E r.r.r.r.r.r.r.r.r.r.r.r.r.r.r.r.r.r.r.r.r.r.r.r.r.r.r.r.r.r.r.E r.r.r.r.r.r.r.r.r.r.r.r.r.r.r.r.r.r.r.r.r.r.r.r.r.",
"r.r.r.r.r.r.E r.r.r.r.r.r.r.r.r.r.r.r.r.r.r.r.r.r.r.r.r.r.r.r.r.r.r.r.r.r.r.E r.r.r.r.r.r.r.r.r.r.r.r.r.r.r.r.r.r.r.r.r.r.r.r.r.r.r.r.r.r.r.E r.r.r.r.r.r.r.r.r.r.r.r.r.r.r.r.r.r.r.r.r.r.r.r.r.r.r.r.r.r.r.E r.r.r.r.r.r.r.r.r.r.r.r.r.r.r.r.r.r.r.r.r.r.r.r.r.",
"r.r.r.r.r.r.E r.r.r.r.r.r.r.r.r.r.r.r.r.r.r.r.r.r.r.r.r.r.r.r.r.r.r.r.r.r.r.E r.r.r.r.r.r.r.r.r.r.r.r.r.r.r.r.r.r.r.r.r.r.r.r.r.r.r.r.r.r.r.E r.r.r.r.r.r.r.r.r.r.r.r.r.r.r.r.r.r.r.r.r.r.r.r.r.r.r.r.r.r.r.E r.r.r.r.r.r.r.r.r.r.r.r.r.r.r.r.r.r.r.r.r.r.r.r.r.",
"r.r.r.r.r.r.E r.r.r.r.r.r.r.r.r.r.r.r.r.r.r.r.r.r.r.r.r.r.r.r.r.r.r.r.r.r.r.E r.r.r.r.r.r.r.r.r.r.r.r.r.r.r.r.r.r.r.r.r.r.r.r.r.r.r.r.r.r.r.E r.r.r.r.r.r.r.r.r.r.r.r.r.r.r.r.r.r.r.r.r.r.r.r.r.r.r.r.r.r.r.E r.r.r.r.r.r.r.r.r.r.r.r.r.r.r.r.r.r.r.r.r.r.r.r.r.",
"r.r.r.r.r.r.E r.r.r.r.r.r.r.r.r.r.r.r.r.r.r.r.r.r.r.r.r.r.r.r.r.r.r.r.r.r.r.E r.r.r.r.r.r.r.r.r.r.r.r.r.r.r.r.r.r.r.r.r.r.r.r.r.r.r.r.r.r.r.E r.r.r.r.r.r.r.r.r.r.r.r.r.r.r.r.r.r.r.r.r.r.r.r.r.r.r.r.r.r.r.E r.r.r.r.r.r.r.r.r.r.r.r.r.r.r.r.r.r.r.r.r.r.r.r.r.",
"r.r.r.r.r.r.9 r.r.r.r.r.r.r.r.r.r.r.r.r.r.r.r.r.r.r.r.r.r.r.r.r.r.r.r.r.r.r.9 r.r.r.r.r.r.r.r.r.r.r.r.r.r.r.r.r.r.r.r.r.r.r.r.r.r.r.r.r.r.r.9 r.r.r.r.r.r.r.r.r.r.r.r.r.r.r.r.r.r.r.r.r.r.r.r.r.r.r.r.r.r.r.9 r.r.r.r.r.r.r.r.r.r.r.r.r.r.r.r.r.r.r.r.r.r.r.r.r.",
"r.r.r.r.r.r.2 r.r.r.r.r.r.r.r.r.r.r.r.r.r.r.r.r.r.r.r.r.r.r.r.r.r.r.r.r.r.r.2 r.r.r.r.r.r.r.r.r.r.r.r.r.r.r.r.r.r.r.r.r.r.r.r.r.r.r.r.r.r.r.2 r.r.r.r.r.r.r.r.r.r.r.r.r.r.r.r.r.r.r.r.r.r.r.r.r.r.r.r.r.r.r.2 r.r.r.r.r.r.r.r.r.r.r.r.r.r.r.r.r.r.r.r.r.r.r.r.r.",
"M M M : : # @ $ : X.X.X.X.X.X.M m 5 5 , , , , , , , - M M M M M M M M : : # @ $ : X.X.X.X.X.X.X.X.X.X.X.k M A W A A z X.X.X.X.X.M M M : : # @ $ : X.X.X.X.X.X.X.X.X.X.X.k M A W A A z X.X.X.X.X.M M M : : # @ $ : Z j h f u u y t r r r 7 M A W A A z X.X.X.X.X.",
"s.s.s.s.s.s.s.s.s.s.s.s.s.s.s.s.b.b.b.b.M ^ ^ ^ ^ c.c.c.c.b.b.b.b.b.b.b.b.b.b.b.b.b.b.b.b.b.b.b.b.b.b.b.b.c.x.T c.c.c.c.c.c.c.c.s.s.s.s.s.s.s.s.s.s.s.s.s.s.s.s.b.b.b.b.b.c.x.T c.c.c.c.c.c.c.c.s.s.s.s.s.s.s.s.s.s.s.f ^ ;.&.&.2.[ [ [ b.c.x.T c.c.c.c.c.c.c.c.",
"6.6.6.6.6.6.6.6.6.6.6.6.6.6.6.6.6.6.6.6.b.k ^ ^ 6.6.6.6.6.6.6.6.6.6.6.6.6.6.6.6.6.6.6.6.6.6.6.6.6.6.6.6.6.6.6.P 6.6.6.6.6.6.6.6.6.6.6.6.6.6.6.6.6.6.6.6.6.6.6.6.6.6.6.6.6.6.6.P 6.6.6.6.6.6.6.6.6.6.6.6.6.6.6.6.6.6.6.h ^ ^ =.=.' 6.6.6.6.6.6.P 6.6.6.6.6.6.6.6.",
"6.6.6.6.6.6.6.6.6.6.6.6.6.6.6.6.6.6.6.6.6.b.k ^ 6.6.6.6.6.6.6.6.6.6.6.6.6.6.6.6.6.6.6.6.6.6.6.6.6.6.6.6.6.6.6.J 6.6.6.6.6.6.6.6.6.6.6.6.6.6.6.6.6.6.6.6.6.6.6.6.6.6.6.6.6.6.6.J 6.6.6.6.6.6.6.6.6.6.6.6.6.6.6.6.6.6.6.s.x ^ =.=.K 6.6.6.6.6.6.J 6.6.6.6.6.6.6.6.",
"6.6.6.6.6.6.6.6.6.6.6.6.6.6.6.6.6.6.6.6.6.6.b.k 3.6.6.6.6.6.6.6.6.6.6.6.6.6.6.6.6.6.6.6.6.6.6.6.6.6.6.6.6.6.6.( 3.6.6.6.6.6.6.6.6.6.6.6.6.6.6.6.6.6.6.6.6.6.6.6.6.6.6.6.6.6.6.( 3.6.6.6.6.6.6.6.6.6.6.6.6.6.6.6.6.6.6.6.s.w 7 8 6.6.6.6.6.6.6.( 5.6.6.6.6.6.6.6.",
"6.6.6.6.6.6.6.6.6.6.6.6.6.6.6.6.6.6.6.6.6.6.b.k 4.6.6.6.6.6.6.6.6.6.6.6.6.6.6.6.6.6.6.6.6.6.6.6.6.6.6.6.6.6.6.( 4.6.6.6.6.6.6.6.6.6.6.6.6.6.6.6.6.6.6.6.6.6.6.6.6.6.6.6.6.6.6.( 4.6.6.6.6.6.6.6.6.6.6.6.6.6.6.6.6.6.6.6.6.s.s.s.6.6.6.6.6.6.6.( 6.6.6.6.6.6.6.6.",
"6.6.6.6.6.6.6.6.6.6.6.6.6.6.6.6.6.6.6.6.6.6.6.k 6.6.6.6.6.6.6.6.6.6.6.6.6.6.6.6.6.6.6.6.6.6.6.6.6.6.6.6.6.6.6./ 6.6.6.6.6.6.6.6.6.6.6.6.6.6.6.6.6.6.6.6.6.6.6.6.6.6.6.6.6.6.6./ 6.6.6.6.6.6.6.6.6.6.6.6.6.6.6.6.6.6.6.6.6.6.6.6.6.6.6.6.6.6.6./ 6.6.6.6.6.6.6.6.",
"6.6.6.6.6.6.6.6.6.6.6.6.6.6.6.6.6.6.6.6.6.6.6.k 6.6.6.6.6.6.6.6.6.6.6.6.6.6.6.6.6.6.6.6.6.6.6.6.6.6.6.6.6.6.6.@ 6.6.6.6.6.6.6.6.6.6.6.6.6.6.6.6.6.6.6.6.6.6.6.6.6.6.6.6.6.6.6.@ 6.6.6.6.6.6.6.6.6.6.6.6.6.6.6.6.6.6.6.6.6.6.6.6.6.6.6.6.6.6.6.@ 6.6.6.6.6.6.6.6.",
"6.6.6.4.6.6.6.6.6.6.6.6.6.6.6.6.6.6.6.6.6.6.6.@ 6.6.6.6.6.6.6.6.6.6.6.4.6.6.6.6.6.6.6.6.6.6.6.6.6.6.6.6.6.6.6.@ 6.6.6.6.6.6.6.6.6.6.6.4.6.6.6.6.6.6.6.6.6.6.6.6.6.6.6.6.6.6.6.@ 6.6.6.6.6.6.6.6.6.6.6.4.6.6.6.6.6.6.6.6.6.6.6.6.6.6.6.6.6.6.6.@ 6.6.6.6.6.6.6.6.",
"X.X.X.L L A L L ) ) ) ) ~ ! Q Q Q Q Q W @ @ @ @ @ @ R R R R R R X.X.X.L L A L L ) ) ) ) ~ ! Q Q Q Q Q W @ @ @ @ @ @ R R R R R R X.X.X.L L A L L ) ) ) ) ~ ! Q Q Q Q Q W @ @ @ @ @ @ R R R R R R X.X.X.p e 0 e 0 w g ) ) ~ ! Q Q Q Q Q W @ @ @ @ @ @ R R R R R R ",
"c.c.c.c.c.c.L c.c.c.c.c.c.c.c.c.c.c.c.c.c.c.c.c.c.c.c.c.c.c.c.c.c.c.c.c.c.c.L c.c.c.c.c.c.c.c.c.c.c.c.c.c.c.c.c.c.c.c.c.c.c.c.c.c.c.c.c.c.c.L c.c.c.c.c.c.c.c.c.c.c.c.c.c.c.c.c.c.c.c.c.c.c.c.c.c.c.c.c.c.c.3 m L c.c.c.c.c.c.c.c.c.c.c.c.c.c.c.c.c.c.c.c.c.c.c.",
"6.6.6.6.6.6.L 6.6.6.6.6.6.6.6.6.6.6.6.6.6.6.6.6.6.6.6.6.6.6.6.6.6.6.6.6.6.6.L 6.6.6.6.6.6.6.6.6.6.6.6.6.6.6.6.6.6.6.6.6.6.6.6.6.6.6.6.6.6.6.L 6.6.6.6.6.6.6.6.6.6.6.6.6.6.6.6.6.6.6.6.6.6.6.6.6.6.6.6.6.6.6.e L c.6.6.6.6.6.6.6.6.6.6.6.6.6.6.6.6.6.6.6.6.6.6.6.",
"6.6.6.6.6.6.L 6.6.6.6.6.6.6.6.6.6.6.6.6.6.6.6.6.6.6.6.6.6.6.6.6.6.6.6.6.6.6.L 6.6.6.6.6.6.6.6.6.6.6.6.6.6.6.6.6.6.6.6.6.6.6.6.6.6.6.6.6.6.6.i > 6.6.6.6.6.6.6.6.6.6.6.6.6.6.6.6.6.6.6.6.6.6.6.6.6.6.6.6.6.6.L c.6.6.6.6.6.6.6.6.6.6.6.6.6.6.6.6.6.6.6.6.6.6.6.6.",
"6.6.6.6.6.6.] 6.6.6.6.6.6.6.6.6.6.6.6.6.6.6.6.6.6.6.6.6.6.6.6.6.6.6.6.6.6.6.] 6.6.6.6.6.6.6.6.6.6.6.6.6.6.6.6.6.6.6.6.6.6.6.6.6.6.6.6.6.6.6.g > 6.6.6.6.6.6.> 6.6.6.6.6.6.6.6.6.6.6.6.6.6.6.6.6.6.6.6.6.6.6.] 6.6.6.6.6.6.6.6.6.6.6.6.6.6.6.6.6.6.6.6.6.6.6.6.6.",
"6.6.6.6.6.6.X.6.6.6.6.6.6.6.6.6.6.6.6.6.6.6.6.6.6.6.6.6.6.6.6.6.6.6.6.6.6.6.X.6.6.6.6.6.6.6.6.6.6.6.6.6.6.6.6.6.6.6.6.6.6.6.6.6.6.6.6.6.6.6.l g > 6.6.6.6.> c.6.6.6.6.6.6.6.6.6.6.6.6.6.6.6.6.6.6.6.6.6.6.6.X.6.6.6.6.6.6.6.6.6.6.6.6.6.6.6.6.6.6.6.6.6.6.6.6.6.",
"6.6.6.6.6.6.9 6.6.6.6.6.6.6.6.6.6.6.6.6.6.6.6.6.6.6.6.6.6.6.6.6.6.6.6.6.6.6.9 6.6.6.6.6.6.6.6.6.6.6.6.6.6.6.6.6.6.6.6.6.6.6.6.6.6.6.6.6.6.6.9 ....F > > > c.6.6.6.6.6.6.6.6.6.6.6.6.6.6.6.6.6.6.6.6.6.6.6.6.9 6.6.6.6.6.6.6.6.6.6.6.6.6.6.6.6.6.6.6.6.6.6.6.6.6.",
"6.6.6.6.6.6.> 6.6.6.6.6.6.6.6.6.6.6.6.6.6.6.6.6.6.6.6.6.6.6.6.6.6.6.6.6.6.6.> 6.6.6.6.6.6.6.6.6.6.6.6.6.6.6.6.6.6.6.6.6.6.6.6.6.6.6.6.6.6.6.9  .X.) F > c.6.6.6.6.6.6.6.6.6.6.6.6.6.6.6.6.6.6.6.6.6.6.6.6.6.> 6.6.6.6.6.6.6.6.6.6.6.6.6.6.6.6.6.6.6.6.6.6.6.6.6.",
"6.6.6.6.6.6.< 6.6.6.6.6.6.6.6.6.6.6.6.6.6.6.6.6.6.6.6.6.6.6.6.6.6.6.6.6.6.6.< 6.6.6.6.6.6.6.6.6.6.6.6.6.6.6.6.6.6.6.6.6.6.6.6.6.6.6.6.6.6.6.9 ] X._ F F > 6.6.6.6.6.6.6.6.6.6.6.6.6.6.6.6.6.6.6.6.6.6.6.6.6.< 6.6.6.6.6.6.6.6.6.6.6.6.6.6.6.6.6.6.6.6.6.6.6.6.6.",
"O O O O O O O O O O O O O O O O 6.O O O O O O O O O O O O O O O O O O O O O O O O O O O O O O O 6.O O O O O O O O O O O O O O O O O O O O O = O O O O O O O O O 6.O O O O O O O O O O O O O O O O O O O O O O O O O O O O O O O 6.O O O O O O O O O O O O O O O ",
"L.L.L.L.L.L.L.L.L.L.L.L.L.L.L.L.* L.L.L.L.L.L.L.L.L.L.L.L.L.L.L.L.L.L.L.L.L.L.L.L.L.L.L.L.L.L.L.  L.L.L.L.L.L.L.L.L.L.L.L.L.L.L.L.L.L.L.L.L.L.L.L.L.L.L.L.L.L.L.* L.L.L.L.L.L.L.L.L.L.L.L.L.L.L.L.L.L.L.L.L.L.L.L.L.L.L.L.L.L.L.* L.L.L.L.L.L.L.L.L.L.L.L.L.L.L.",
"L.L.L.L.L.L.L.L.L.L.L.L.L.L.L.L.#.L.L.L.L.L.L.L.L.L.L.L.L.L.L.L.L.L.L.L.L.L.L.L.L.L.L.L.L.L.L.N   L.L.L.L.L.L.L.L.L.L.L.L.L.L.L.L.L.L.L.L.L.L.L.L.L.L.L.L.L.L.L.#.L.L.L.L.L.L.L.L.L.L.L.L.L.L.L.L.L.L.L.L.L.L.L.L.L.L.L.L.L.L.L.#.L.L.L.L.L.L.L.L.L.L.L.L.L.L.L.",
"L.L.L.L.L.L.L.L.L.L.L.L.L.L.L.L.#.L.L.L.L.L.L.L.L.L.L.L.L.L.L.L.L.L.L.L.L.L.L.L.L.L.L.L.L.L.C B   L.L.L.L.L.L.L.L.L.L.L.L.L.L.L.L.L.L.L.L.L.L.L.L.L.L.L.L.L.L.L.#.L.L.L.L.L.L.L.L.L.L.L.L.L.L.L.L.L.L.L.L.L.L.L.L.L.L.L.L.L.L.L.#.L.L.L.L.L.L.L.L.L.L.L.L.L.L.L.",
"L.L.L.L.L.L.L.L.L.L.L.L.L.L.L.L.#.L.L.L.L.L.L.L.L.L.L.L.L.L.L.L.L.L.L.L.L.L.L.L.L.L.L.<.,.B C C   L.L.L.L.L.L.L.L.L.L.L.L.L.L.L.L.L.L.L.L.L.L.L.L.L.L.L.L.L.L.L.#.L.L.L.L.L.L.L.L.L.L.L.L.L.L.L.L.L.L.L.L.L.L.L.L.L.L.L.L.L.L.L.#.L.L.L.L.L.L.L.L.L.L.L.L.L.L.L.",
"T.T.T.T.T.T.T.T.T.T.T.T.T.T.T.T.#.T.T.T.T.T.T.T.T.T.T.T.T.T.T.T.T.T.T.T.T.T.T.T.T.T.>.1.1.>.>.V   T.T.T.T.T.T.T.T.T.T.T.T.T.T.T.T.T.T.T.T.T.T.T.T.T.T.T.T.T.T.T.#.T.T.T.T.T.T.T.T.T.T.T.T.T.T.T.T.T.T.T.T.T.T.T.T.T.T.T.T.T.T.T.#.T.T.T.T.T.T.T.T.T.T.T.T.T.T.T.",
"7.7.7.7.7.7.7.7.7.7.7.7.7.7.7.7.#.7.7.7.7.7.7.7.7.7.7.7.7.7.7.7.7.7.7.7.7.7.7.7.7.7.H.>.>.>.a n   7.7.7.7.7.7.7.7.7.7.7.7.7.7.7.7.7.7.7.7.7.7.7.7.7.7.7.7.7.7.7.#.7.7.7.7.7.7.7.7.7.7.7.7.7.7.7.7.7.7.7.7.7.7.7.7.7.7.7.7.7.7.7.#.7.7.7.7.7.7.7.7.7.7.7.7.7.7.7.",
"7.7.7.7.7.7.7.7.7.7.7.7.7.7.7.7.#.7.7.7.7.7.7.7.7.7.7.7.7.7.7.7.7.7.7.7.7.7.7.7.7.7.7.n.>.a a     7.7.7.7.7.7.7.7.7.7.7.7.7.7.7.7.7.7.7.7.7.7.7.7.7.7.7.7.7.7.7.#.7.7.7.7.7.7.7.7.7.7.7.7.7.7.7.7.7.7.7.7.7.7.7.7.7.7.7.7.7.7.7.#.7.7.7.7.7.7.7.7.7.7.7.7.7.7.7.",
"7.7.7.7.7.7.7.7.7.7.7.7.7.7.7.7.  7.7.7.7.7.7.7.7.7.7.7.7.7.7.7.7.7.7.7.7.7.7.7.7.7.7.D.a     ~.~.. 7.7.7.7.7.7.7.7.7.7.7.7.7.7.7.7.7.7.7.7.7.7.7.7.7.7.7.7.7.7.  7.7.7.7.7.7.7.7.7.7.7.7.7.7.7.7.7.7.7.7.7.7.7.7.7.7.7.7.7.7.7.  7.7.7.7.7.7.7.7.7.7.7.7.7.7.7.",
"                                                                                          ~.~.~.~.~.                                                                                                                                                            "
};
