/* XPM */
static char *result[] = {
/* columns rows colors chars-per-pixel */
"24 64 43 1 ",
"  c #4E2812",
". c #502A13",
"X c #56341F",
"o c #563420",
"O c #583723",
"+ c #5A3B27",
"@ c #5D3E2B",
"# c #5E412D",
"$ c #524439",
"% c #564A3F",
"& c #614532",
"* c #574A40",
"= c #5A4D43",
"- c #5C5146",
"; c #5E5148",
": c #655E54",
"> c #676056",
", c #686157",
"< c #676158",
"1 c #6B655C",
"2 c #6D685F",
"3 c #71695D",
"4 c #6F6A60",
"5 c #726D64",
"6 c #757067",
"7 c #76736A",
"8 c #79766D",
"9 c #7A7770",
"0 c #7B7871",
"q c #807D76",
"w c #827F78",
"e c #868479",
"r c #89867A",
"t c #8A8680",
"y c #8D8B82",
"u c #908D83",
"i c #928F88",
"p c #95938B",
"a c #99968E",
"s c #9B988F",
"d c #9F9B94",
"f c #A09D95",
"g c None",
/* pixels */
"g@@####@@++@gggg&&&&&&&g",
"Xyyyryeeeee:+++orrrrrrrO",
"iyyeeeeeee2:::,pwrrwrsrs",
"peeeeeeee452aparrrwrrrrf",
"ieeeeeee5iiireeewrwrrwwf",
"pereeerererrreerrrrrrrrr",
"peeerererrreerrerrrwrrwf",
"perrrrrrrrrrrrrrrrrrrrwf",
"arrrrrrrrrrrrrrrwrrrrrrf",
"srrrrrrrrrrrrrrrwsrrrrwf",
"fuprrrrrrrrrrrrrrrrrrrrf",
"frrrrruprrrrrrrrrrrwrrrf",
"fuuurpurrrrrrrrrwuwwiitd",
"fiuuuurrrrrrrrrrwwwstttd",
"6fuyurrrrrrrrrrruuuuiid1",
"66dfffsssssssssfssdddd<q",
"1,i6665664141115655t111:",
",1i76611414114165656ti::",
",r77673314114141114555q:",
",r666511311<14141416551q",
":t55314114;*;;;44145555q",
"t575141431qq;4411411151q",
"w5141441111*q*14411111<q",
"w641441411;q11;114111<<q",
"w664141514;141;141411149",
"w565143131q441q114415119",
"q75511413111414114144149",
"957:141411;;31;441411419",
"9511114114;6;15314141419",
"q:1:111313;36;1141414149",
"9:41:13431;415;114141149",
"q::1111113;11q;141411119",
"q1111111146441q141141119",
"q1111:33111:111114114219",
"8::1111111;;;;;141411149",
"91111111146555;111111419",
"9111111111;;;;=144412119",
"9<1::11111=1141111442219",
"9111111:11=:==*<:4412220",
"9<11111111516661::::<228",
"8111111<<2111:1:<<1:1219",
"9::1<111:1*===*1<<<:2219",
"91<111<111*266*::1:1411.",
"8:1::<1<2<*11*6<<<:414*.",
"9:1:<<<11<*1*51:<<:<1** ",
"91<11<<<<1**5<*<:<:41=- ",
"8:1:<11:1<65:15:<<:4-=99",
"81:1<:1<:1:1::<:<::-99<9",
"8:1:<1::1::***::>>=811<8",
"822<:1<1:1*264*<><,,,,18",
"911<<<<:1:*1*<*:,<,,1,<8",
" 11<1:<::1*:4:*<,,,,<<<8",
" **::::4<<4***1<>>>>,,,8",
" **$<<<<:<:445<:>>>>,,,8",
"8888=::<<::::<:<>>:>:,,8",
"821:8::::<*$<:$:>:>>>::7",
"744>>>>><:$5$@4<:::::::7",
"742>>>:>::$154:<::,::::7",
"722<1::><:$1$$:::::::,,7",
"7<111::>::$$45$::::::3,6",
"52<2::::::44::<:::::::&q",
"5<2<:::::::::::::,,::::q",
"411<<1:::::::::::,3,::,q",
"51111<<:::::::::,,,,,,,q"
};
