/* XPM */
static char *result[] = {
/* columns rows colors chars-per-pixel */
"64 64 5 1 ",
"  c #656C17",
". c #72751B",
"X c #787B21",
"o c #7F8124",
"O c #7F8226",
/* pixels */
"................................................................",
"................................................................",
"................................................................",
"................................................................",
"................................................................",
"................................................................",
"................................................................",
"................................................................",
"................................................................",
"................................................................",
"................................................................",
"................................................................",
"................................................................",
"................................................................",
"..............................................O.................",
".........................................OOX..XX................",
"..........................................OXX. X..O.............",
".......................................... XXX .XX .............",
"O........................................OX XX..XX .............",
"XX....................................... XX X..  ..............",
" X..O..................................... X  ..................",
" .XX ...........................................................",
"..XX ...........................................................",
"..  ............................................................",
"................................................................",
"................................................................",
"................................................................",
"................................................................",
"................................................................",
"................................................................",
"................................................................",
"..........................OO....................................",
"...........................OXX...OO.............................",
"........................... XX..XO..............................",
"............................  .XXX..............................",
"...............................XX ..............................",
"...............................  ...............................",
"................................................................",
"................................................................",
"................................................................",
"................................................................",
"..................................XO............................",
"...................................OO...........................",
"...................................XXX..........................",
"................................... XX XXOO.....................",
"....................................  XXX.......................",
"......................................XX .......................",
"........XO....XX......................X ........................",
".........OO..XX.................................................",
"......... XX.XX.................................................",
"......... XX.  .................................................",
"..........  ....................................O...............",
"...............................................O................",
"..............................................XX................",
"..............................................XX ...............",
"..............................................  XO..............",
"................................................XX..............",
"................................................  ..............",
"................................................................",
"...........................OO.....O.............................",
"............................OXX.XO..............................",
".........................XOO X XX ..............................",
"..........................OXX  XX ..............................",
".......................... XX..X .........................Xoo..."
};
