/* XPM */
static char *result[] = {
/* columns rows colors chars-per-pixel */
"64 64 143 2 ",
"   c #4F2913",
".  c #502D18",
"X  c #4F311E",
"o  c #53321E",
"O  c #56321C",
"+  c #4F3625",
"@  c #543523",
"#  c #543624",
"$  c #553726",
"%  c #553827",
"&  c #5A3B27",
"*  c #5E3B25",
"=  c #573928",
"-  c #563B2A",
";  c #563D2C",
":  c #573C2D",
">  c #573D2D",
",  c #573E2E",
"<  c #593D2A",
"1  c #573F30",
"2  c #583F30",
"3  c #5B4231",
"4  c #584032",
"5  c #594032",
"6  c #584132",
"7  c #594233",
"8  c #5E4532",
"9  c #594234",
"0  c #594334",
"q  c #5A4336",
"w  c #5A4436",
"e  c #5A4437",
"r  c #5A4537",
"t  c #5A4637",
"y  c #56463A",
"u  c #57473A",
"i  c #5A4538",
"p  c #5A4638",
"a  c #5A4639",
"s  c #5B4639",
"d  c #5A4739",
"f  c #5B4739",
"g  c #5B473A",
"h  c #5B473B",
"j  c #56483B",
"k  c #57483B",
"l  c #57483C",
"z  c #5B483A",
"x  c #5B483B",
"c  c #5B483C",
"v  c #5B493C",
"b  c #5A4A3D",
"n  c #594B3E",
"m  c #5C493D",
"M  c #5C4A3E",
"N  c #5C4B3E",
"B  c #5C4B3F",
"V  c #624937",
"C  c #5C4B40",
"Z  c #5C4D41",
"A  c #5D4D41",
"S  c #5D4D42",
"D  c #5D4E42",
"F  c #5D4E43",
"G  c #5D4F43",
"H  c #5E4E43",
"J  c #5E4F44",
"K  c #5E4F45",
"L  c #5D5044",
"P  c #5E5145",
"I  c #5C5147",
"U  c #5F5046",
"Y  c #5E5146",
"T  c #5C5247",
"R  c #5D5247",
"E  c #5D5248",
"W  c #5F5248",
"Q  c #5F5348",
"!  c #5F5349",
"~  c #5E554A",
"^  c #5F564B",
"/  c #5C554C",
"(  c #5F574C",
")  c #655444",
"_  c #665444",
"`  c #675544",
"'  c #61554C",
"]  c #60574C",
"[  c #61564D",
"{  c #60574D",
"}  c #62574E",
"|  c #60584D",
" . c #635951",
".. c #655C55",
"X. c #655D56",
"o. c #665F58",
"O. c #666057",
"+. c #6B6256",
"@. c #6C6254",
"#. c #6C6255",
"$. c #6C6355",
"%. c #6D6457",
"&. c #676159",
"*. c #676259",
"=. c #68625A",
"-. c #68635A",
";. c #69635B",
":. c #69645B",
">. c #6D6558",
",. c #69645C",
"<. c #6A645C",
"1. c #6A655C",
"2. c #6B655D",
"3. c #6A665C",
"4. c #6B665D",
"5. c #6B675D",
"6. c #6B675E",
"7. c #6C665E",
"8. c #6C675E",
"9. c #6C675F",
"0. c #6C685E",
"q. c #6C685F",
"w. c #6D685F",
"e. c #6D695F",
"r. c #6D6960",
"t. c #6F6A61",
"y. c #746F63",
"u. c #746F64",
"i. c #726E69",
"p. c #747064",
"a. c #757065",
"s. c #767469",
"d. c #7B786F",
"f. c #7C7970",
"g. c #85837A",
"h. c #868579",
"j. c #86847B",
"k. c #88877B",
"l. c #918F88",
"z. c #929088",
"x. c #94928B",
"c. c #99978F",
"v. c None",
/* pixels */
"& & & & & & & & & & & & & & & & & & & & & & & & & & & & & & & v.& & & & & & & & & & & & & & & & & & & & & & & & & & & & & & & v.",
"h.h.h.h.h.h.h.h.h.h.h.h.h.h.h.h.h.h.h.h.h.h.h.h.h.h.h.h.h.k.k.8 h.h.h.h.h.h.h.h.h.h.h.h.h.h.h.h.h.h.h.h.h.h.h.h.h.h.h.h.h.k.k.8 ",
"h.h.h.h.h.h.h.h.h.h.h.h.h.h.h.h.h.h.h.h.h.h.h.h.h.h.h.h.h.h.k.V h.h.h.h.h.h.h.h.h.h.h.h.h.h.h.h.h.h.h.h.h.h.h.h.h.h.h.h.h.h.k.V ",
"h.h.h.h.h.h.h.h.h.h.h.h.h.h.h.h.h.h.h.h.h.h.h.h.h.h.h.h.h.h.h.` h.h.h.h.h.h.h.h.h.h.h.h.h.h.h.h.h.h.h.h.h.h.h.h.h.h.h.h.>.%.$.` ",
"x.c.c.c.x.x.x.x.x.x.x.x.x.x.x.l.l.l.l.l.l.l.l.l.l.l.z.x.c.c.c._ x.c.c.c.x.x.x.x.x.x.x.x.x.x.x.l.l.l.l.l.l.l.l.l.l.l.z.+.@.#.a._ ",
"w.w.w.0.w.w.w.w.w.8.0.0.0.0.0.e.e.e.w.w.w.w.w.w.w.e.e.e.e.e.w.3 w.w.w.0.w.w.w.w.w.8.0.0.0.0.0.e.e.e.w.w.w.w.w.w.w.e.e.g.@.p.u.3 ",
"w.w.0.0.0.w.w.w.0.8.8.8.8.8.8.w.w.w.w.w.w.w.w.w.w.w.w.w.e.w.w.3 w.w.0.0.0.w.w.w.0.8.8.8.8.8.8.w.w.w.w.w.w.w.w.w.w.w.w.w.f.u.y.3 ",
"w.0.0.8.8.0.0.0.8.8.8.8.8.8.8.w.w.w.w.w.w.w.w.0.0.0.0.0.0.8.8.3 w.0.0.8.8.0.0.0.8.8.8.8.8.8.8.w.w.w.w.w.w.w.w.0.0.0.0.w.w.d.y.3 ",
"8.8.8.8.8.5.5.8.8.8.8.8.7.4.4.w.0.0.0.0.0.0.0.0.0.0.8.8.8.8.8.3 8.8.8.8.8.5.5.8.8.8.8.8.7.4.4.w.0.0.0.0.0.0.0.0.0.0.8.8.8.8.f.3 ",
"4.4.4.4.4.4.4.4.4.4.4.4.4.4.4.8.8.8.8.8.8.8.8.8.8.8.5.5.5.5.5.3 4.4.4.4.4.4.4.4.4.4.4.4.4.4.4.8.8.8.8.8.8.8.8.8.8.8.5.5.5.5.5.3 ",
"4.4.4.4.4.2.2.1.1.1.1.3.3.3.3.5.4.4.4.4.4.4.1.4.4.4.4.4.4.4.4.3 4.4.4.4.4.2.2.1.1.1.1.3.3.3.3.5.4.4.4.4.4.4.4.4.4.4.4.4.4.4.4.3 ",
"2.2.1.<.<.<.<.<.<.<.<.1.1.1.1.1.1.1.1.1.1.1.( 1.1.1.1.2.2.2.2.< 2.2.1.<.<.<.<.<.<.<.<.1.1.1.1.1.1.1.1.1.1.1.1.1.1.1.1.2.2.2.2.< ",
":.:.:.:.:.:.:.:.:.:.:.:.:.:.:.1.1.1.1.1.1.1.t.| ] 1.1.1.1.<.1.o :.:.:.:.:.:.:.:.:.:.:.:.:.:.:.1.1.1.1.1.1.1.1.1.1.1.1.1.1.<.1.o ",
";.;.;.;.;.;.:.:.:.:.:.:.:.:.:.:.:.<.:.:.:.:.-.6.w.{ 1.1.:.:.:.o ;.;.;.;.;.;.:.:.:.:.:.:.:.:.:.:.:.<.:.:.:.:.:.:.:.:.:.:.:.:.:.o ",
"-.-.-.-.-.-.-.-.-.-.-.-.-.;.;.;.;.;.;.;.;.;.;.-.-.r.( ^ ;.-.-.o -.-.-.-.-.-.-.-.-.-.-.-.-.;.;.;.;.;.;.;.;.;.;.;.;.;.;.;.;.-.-.o ",
"=.=.=.=.=.=.=.=.=.-.-.=.-.-.-.*.*.*.*.*.*.*.=.*.=.w.^ ^ ^ k u o =.=.=.=.=.=.=.=.=.-.-.=.-.-.-.*.*.*.*.*.*.*.=.*.=.=.=.-.-.-.=.o ",
"&.&.&.&.&.&.&.&.&.&.&.&.&.&.&.&.&.&.&.&.&.&.&.&.=.~ ^ ^ j y l o &.&.&.&.&.&.&.&.&.&.&.&.&.&.&.&.&.&.&.&.&.&.&.&.&.&.&.&.&.&.&.o ",
"  &.&.&.&.&.&.&.&.&.&.&.&.&.&.&.&.&.&.&.&.&.&./ T             T   &.&.&.&.&.&.&.&.&.&.&.&.&.&.&.&.&.&.&.&.&.&.&.&.&.&.&.&.&.&.  ",
"n                                                 T T T T T T T T                                                             T ",
"T T T T T T X I I T R R R R E T T T T T T T T T T T T T T T T T T T T T T T X I I T R R R R E T T T T T T T T T T T T T T T T T ",
"T T T T T T X T T R R R R R E T T T T T T T T T T T T T T T T T T T T T T T X T T R R R R R E T T T T T T T T T T T T T T T T T ",
"T T T T T T + T T R R R R R E T T T T T T T T T T T T T T T T T T T T T T T + T T R R R R R E T T T T T T T T T T T T T T T T T ",
"T T T T T T + T T T R R R R E T T T T T T T T T T T T T T T T T T T T T T T + T T T R R R R E T T T T T T T T T T T T T T T T T ",
"T T T T T T + T T T R R R R E T T T T T T T T T T T T T T T T T T T T T T T + T T T R R R R E T T T T T T T T T T T T T T T T T ",
"T T T T T T + I I T R R R R R T T T T T T T T T T T T T T T T T T T T T T T + I I T R R R R R T T T T T T T T T T T T T T T T T ",
"&.&.&.&.&.&.6 &.&.&.&.&.&.&.&.&.&.&.&.&.&.&.&.&.&.&.&.&.&.&.&.&.&.&.&.&.&.&.6 &.&.&.&.&.&.&.&.&.&.&.&.&.&.&.&.&.&.&.&.&.&.&.&.&.",
"&.&.&.&.&.&.# &.&.&.&.&.&.&.&.&.&.&.&.&.&.&.&.&.&.&.&.&.&.&.&.&.&.&.&.&.&.&.# &.&.&.&.&.&.&.&.&.&.&.&.&.&.&.&.&.&.&.&.&.&.&.&.&.",
"! ! 6 6 ; - $ % 2 ! ! ! ! ! ! Y Y Y Y Y A A A Y Y Y ! ! ! ! ! ! ! ! 6 6 ; - $ % 2 ! ! ! ! ! ! Y Y Y Y Y A A A Y Y Y ! ! ! ! ! ! ",
"i.i.i.i.i.i.i.i.i.i.i.i.i.i.i.i.i.i.i.i.i.A 9.9.9.9.9.9.9.9.9.9.9.9.9.9.9.9.9.9.9.9.9.9.9.9.9.w.w.w.w.w.w.A 9.9.9.9.9.9.9.9.9.9.",
"&.&.&.&.&.&.&.&.&.&.&.&.&.&.&.&.&.&.&.&.&.A &.&.&.&.&.&.&.&.&.&.&.&.&.&.&.&.&.&.&.&.&.&.&.&.&.&.&.&.&.&.&.A &.&.&.&.&.&.&.&.&.&.",
"&.&.&.&.&.&.&.&.&.&.&.&.&.&.&.&.&.&.&.&.&.A &.&.&.&.&.&.&.&.&.&.&.&.&.&.&.&.&.&.&.&.&.&.&.&.&.&.&.&.&.&.&.A &.&.&.&.&.&.&.&.&.&.",
"&.&.&.&.&.&.&.&.&.&.&.&.&.&.&.&.&.&.&.&.&.A &.&.&.&.&.&.&.&.&.&.&.&.&.&.&.&.&.&.&.&.&.&.&.&.&.&.&.&.&.&.&.A &.&.&.&.&.&.&.&.&.&.",
"&.&.&.&.&.&.&.&.&.&.&.&.&.&.&.&.&.&.&.&.&.A &.&.&.&.&.&.&.&.&.&.&.&.&.&.&.&.&.&.&.&.&.&.&.&.&.&.&.&.&.&.&.A &.&.&.&.&.&.&.&.&.&.",
"&.&.&.&.&.&.&.&.&.&.&.&.&.&.&.&.&.&.&.&.&.A &.&.&.&.&.&.&.&.&.&.&.&.&.&.&.&.&.&.&.&.&.&.&.&.&.&.&.&.&.&.&.A &.&.&.&.&.&.&.&.&.&.",
"&.&.&.&.&.&.&.&.&.&.&.&.&.&.&.&.&.&.&.&.&.6 &.&.&.&.&.&.&.&.&.&.&.&.&.&.&.&.&.&.&.&.&.&.&.&.&.&.&.&.&.&.&.6 &.&.&.&.&.&.&.&.&.&.",
"&.&.&.&.&.&.&.&.&.&.&.&.&.&.&.&.&.&.&.&.&.1 &.&.&.&.&.&.&.&.&.&.&.&.&.&.&.&.&.&.&.&.&.&.&.&.&.&.&.&.&.&.&.1 &.&.&.&.&.&.&.&.&.&.",
"! ! ! d x v S v v g ! ! ! ! ! x x x : : # @ $ : ! ! ! ! ! ! ! ! ! ! ! d x v S v v g ! ! ! ! ! x x x : : # @ $ : c s a i e e w q ",
"q.q.q.q.9.8.C 9.9.9.9.9.9.9.9.,.,.,.,.,.,.,.,.,.,.,.,.,.,.,.,.q.q.q.q.q.9.8.C 9.9.9.9.9.9.9.9.,.,.,.,.,.,.,.,.,.,.,.i H } ' '  .",
"o.o.o.o.o.o.B o.o.o.o.o.o.o.o.o.o.o.o.o.o.o.o.o.o.o.o.o.o.o.o.o.o.o.o.o.o.o.B o.o.o.o.o.o.o.o.o.o.o.o.o.o.o.o.o.o.o.a H H [ [ U ",
"o.o.o.o.o.o.m o.o.o.o.o.o.o.o.o.o.o.o.o.o.o.o.o.o.o.o.o.o.o.o.o.o.o.o.o.o.o.m o.o.o.o.o.o.o.o.o.o.o.o.o.o.o.o.o.o.o.,.h H [ [ M ",
"o.o.o.o.o.o.K ..o.o.o.o.o.o.o.o.o.o.o.o.o.o.o.o.o.o.o.o.o.o.o.o.o.o.o.o.o.o.K ..o.o.o.o.o.o.o.o.o.o.o.o.o.o.o.o.o.o.o.,.9 4 5 o.",
"o.o.o.o.o.o.K X.o.o.o.o.o.o.o.o.o.o.o.o.o.o.o.o.o.o.o.o.o.o.o.o.o.o.o.o.o.o.K X.o.o.o.o.o.o.o.o.o.o.o.o.o.o.o.o.o.o.o.o.,.,.,.o.",
"o.o.o.o.o.o.J o.o.o.o.o.o.o.o.o.o.o.o.o.o.o.o.o.o.o.o.o.o.o.o.o.o.o.o.o.o.o.J o.o.o.o.o.o.o.o.o.o.o.o.o.o.o.o.o.o.o.o.o.o.o.o.o.",
"o.o.o.o.o.o.@ o.o.o.o.o.o.o.o.o.o.o.o.o.o.o.o.o.o.o.o.o.o.o.o.o.o.o.o.o.o.o.@ o.o.o.o.o.o.o.o.o.o.o.o.o.o.o.o.o.o.o.o.o.o.o.o.o.",
"o.o.o.o.o.o.@ o.o.o.o.o.o.o.o.o.o.o.X.o.o.o.o.o.o.o.o.o.o.o.o.o.o.o.o.o.o.o.@ o.o.o.o.o.o.o.o.o.o.o.X.o.o.o.o.o.o.o.o.o.o.o.o.o.",
"D D S @ @ @ @ @ @ Z Z Z Z Z Z ! ! ! N N v N N L L L L G F D D D D D S @ @ @ @ @ @ Z Z Z Z Z Z ! ! ! t 0 7 0 7 9 p L L G F D D D ",
"9.9.9.9.9.9.9.9.9.9.9.9.9.9.9.9.9.9.9.9.9.N 9.9.9.9.9.9.9.9.9.9.9.9.9.9.9.9.9.9.9.9.9.9.9.9.9.9.9.9.9.9.9.2 z N 9.9.9.9.9.9.9.9.",
"o.o.o.o.o.o.o.o.o.o.o.o.o.o.o.o.o.o.o.o.o.N o.o.o.o.o.o.o.o.o.o.o.o.o.o.o.o.o.o.o.o.o.o.o.o.o.o.o.o.o.o.o.0 N 9.o.o.o.o.o.o.o.o.",
"o.o.o.o.o.o.o.o.o.o.o.o.o.o.o.o.o.o.o.o.o.r > o.o.o.o.o.o.o.o.o.o.o.o.o.o.o.o.o.o.o.o.o.o.o.o.o.o.o.o.o.o.N 9.o.o.o.o.o.o.o.o.o.",
"o.o.o.o.o.o.o.o.o.o.o.o.o.o.o.o.o.o.o.o.o.p > o.o.o.o.o.o.> o.o.o.o.o.o.o.o.o.o.o.o.o.o.o.o.o.o.o.o.o.o.o.Y o.o.o.o.o.o.o.o.o.o.",
"o.o.o.o.o.o.o.o.o.o.o.o.o.o.o.o.o.o.o.o.o.f p > o.o.o.o.> 9.o.o.o.o.o.o.o.o.o.o.o.o.o.o.o.o.o.o.o.o.o.o.o.! o.o.o.o.o.o.o.o.o.o.",
"o.o.o.o.o.o.o.o.o.o.o.o.o.o.o.o.o.o.o.o.o.6 Q Q b > > > 9.o.o.o.o.o.o.o.o.o.o.o.o.o.o.o.o.o.o.o.o.o.o.o.o.6 o.o.o.o.o.o.o.o.o.o.",
"o.o.o.o.o.o.o.o.o.o.o.o.o.o.o.o.o.o.o.o.o.6 W ! L b > 9.o.o.o.o.o.o.o.o.o.o.o.o.o.o.o.o.o.o.o.o.o.o.o.o.o.> o.o.o.o.o.o.o.o.o.o.",
"o.o.o.o.o.o.o.o.o.o.o.o.o.o.o.o.o.o.o.o.o.6 Y ! P b b > o.o.o.o.o.o.o.o.o.o.o.o.o.o.o.o.o.o.o.o.o.o.o.o.o., o.o.o.o.o.o.o.o.o.o.",
"O O O O O O O O O O O O O O O O O O O O O = O O O O O O O O O o.O O O O O O O O O O O O O O O O O O O O O O O O O O O O O O O o.",
"s.s.s.s.s.s.s.s.s.s.s.s.s.s.s.s.s.s.s.s.s.s.s.s.s.s.s.s.s.s.s.* s.s.s.s.s.s.s.s.s.s.s.s.s.s.s.s.s.s.s.s.s.s.s.s.s.s.s.s.s.s.s.* ",
"s.s.s.s.s.s.s.s.s.s.s.s.s.s.s.s.s.s.s.s.s.s.s.s.s.s.s.s.s.s.s.) s.s.s.s.s.s.s.s.s.s.s.s.s.s.s.s.s.s.s.s.s.s.s.s.s.s.s.s.s.s.s.) ",
"s.s.s.s.s.s.s.s.s.s.s.s.s.s.s.s.s.s.s.s.s.s.s.s.s.s.s.s.s.s.s.) s.s.s.s.s.s.s.s.s.s.s.s.s.s.s.s.s.s.s.s.s.s.s.s.s.s.s.s.s.s.s.) ",
"s.s.s.s.s.s.s.s.s.s.s.s.s.s.s.s.s.s.s.s.s.s.s.s.s.s.s.s.s.s.s.) s.s.s.s.s.s.s.s.s.s.s.s.s.s.s.s.s.s.s.s.s.s.s.s.s.s.s.s.s.s.s.) ",
"j.j.j.j.j.j.j.j.j.j.j.j.j.j.j.j.j.j.j.j.j.j.j.j.j.j.j.j.j.j.j.) j.j.j.j.j.j.j.j.j.j.j.j.j.j.j.j.j.j.j.j.j.j.j.j.j.j.j.j.j.j.j.) ",
"O.O.O.O.O.O.O.O.O.O.O.O.O.O.O.O.O.O.O.O.O.O.O.O.O.O.O.O.O.O.O.) O.O.O.O.O.O.O.O.O.O.O.O.O.O.O.O.O.O.O.O.O.O.O.O.O.O.O.O.O.O.O.) ",
"O.O.O.O.O.O.O.O.O.O.O.O.O.O.O.O.O.O.O.O.O.O.O.O.O.O.O.O.O.O.O.) O.O.O.O.O.O.O.O.O.O.O.O.O.O.O.O.O.O.O.O.O.O.O.O.O.O.O.O.O.O.O.) ",
". O.O.O.O.O.O.O.O.O.O.O.O.O.O.O.O.O.O.O.O.O.O.O.O.O.O.O.O.O.O.  O.O.O.O.O.O.O.O.O.O.O.O.O.O.O.O.O.O.O.O.O.O.O.O.O.O.O.O.O.O.O.  ",
"v.                                                                                                                              "
};
