/* XPM */
static char *result[] = {
/* columns rows colors chars-per-pixel */
"64 64 118 2 ",
"   c #5D8E00",
".  c #5D9500",
"X  c #5F9500",
"o  c #628F00",
"O  c #648E00",
"+  c #649000",
"@  c #649300",
"#  c #619400",
"$  c #609500",
"%  c #619500",
"&  c #629400",
"*  c #639400",
"=  c #629500",
"-  c #639500",
";  c #649400",
":  c #649500",
">  c #659500",
",  c #649600",
"<  c #699600",
"1  c #6B9700",
"2  c #679800",
"3  c #659A00",
"4  c #649B00",
"5  c #679D00",
"6  c #649E00",
"7  c #669E00",
"8  c #6B9900",
"9  c #689B00",
"0  c #6B9B00",
"q  c #699C00",
"w  c #699D00",
"e  c #6B9C00",
"r  c #6A9D00",
"t  c #6B9D00",
"y  c #689E00",
"u  c #699E00",
"i  c #699F00",
"p  c #6A9E00",
"a  c #6B9E00",
"s  c #6A9F00",
"d  c #6B9F00",
"f  c #6C9D00",
"g  c #6E9D00",
"h  c #6C9E00",
"j  c #6C9F00",
"k  c #6E9E00",
"l  c #67A000",
"z  c #67A400",
"x  c #6AA000",
"c  c #6AA100",
"v  c #6BA200",
"b  c #6DA000",
"n  c #6EA000",
"m  c #6EA100",
"M  c #6CA200",
"N  c #6DA200",
"B  c #6CA300",
"V  c #6DA300",
"C  c #6EA200",
"Z  c #6FA200",
"A  c #6EA300",
"S  c #6FA300",
"D  c #69A400",
"F  c #6BA400",
"G  c #6CA400",
"H  c #6DA400",
"J  c #6DA500",
"K  c #6EA400",
"L  c #6FA400",
"P  c #6EA500",
"I  c #6FA500",
"U  c #74AD03",
"Y  c #71AA04",
"T  c #72AA04",
"R  c #74AD04",
"E  c #77AE04",
"W  c #78AA04",
"Q  c #78AD04",
"!  c #7BAD04",
"~  c #78AF04",
"^  c #76B003",
"/  c #77B203",
"(  c #71B104",
")  c #74B004",
"_  c #74B104",
"`  c #76B104",
"'  c #77B104",
"]  c #74B404",
"[  c #77B404",
"{  c #78B102",
"}  c #78B003",
"|  c #78B103",
" . c #7BB103",
".. c #79B303",
"X. c #7BB203",
"o. c #7AB303",
"O. c #79B402",
"+. c #7BB403",
"@. c #7CB403",
"#. c #78B004",
"$. c #78B104",
"%. c #7BB004",
"&. c #7AB104",
"*. c #78B204",
"=. c #79B204",
"-. c #79B304",
";. c #7AB204",
":. c #7BB204",
">. c #7BB304",
",. c #7CB304",
"<. c #78B404",
"1. c #79B504",
"2. c #79B405",
"3. c #7AB404",
"4. c #7BB404",
"5. c #7AB504",
"6. c #7BB405",
"7. c None",
/* pixels */
"7.7.7.7.7.7.7.7.7.7.7.7.7.7.7.7.7.7.7.7.7.7.7.7.7.7.7.7.7.7.7.7.7.7.7.7.7.7.7.7.7.7.7.7.7.7.7.7.7.7.7.7.7.7.7.7.7.7.7.7.7.7.7.7.",
"7.7.7.7.7.7.7.7.7.7.7.7.7.7.7.7.7.7.7.7.7.7.7.7.7.7.7.7.7.7.7.7.7.7.7.7.7.7.7.7.7.7.7.7.7.7.7.7.7.7.7.7.7.7.7.7.7.7.7.7.7.7.7.7.",
"7.7.7.7.7.7.7.7.7.7.7.7.7.7.7.7.7.7.7.7.7.7.7.7.7.7.7.7.7.7.7.7.7.7.7.7.7.7.7.7.7.7.7.7.7.7.7.7.7.7.7.7.7.7.7.7.7.7.7.7.7.7.7.7.",
"7.7.7.7.7.7.7.7.7.7.7.7.7.7.7.7.7.7.7.s 7.7.a 7.7.7.7.7.: 7.7.7.7.7.7._ K 7.7.G 7.7.i : 7.7.7.7.7.7.7.7.7.7.7.7.7.7.7.7.7.7.7.7.",
"7.7.7.7.7.7.7.7.7.7.7.7.7.7.7.7.7.7.L m 7.7.P a 7.7.7.7.J r 7.7.7.7.*.z K p L K c L a z 7.K J 7.7.7.S H 7.7.7.7.7.7.7.7.7.7.7.7.",
"7.7.7.7.7.7.7.7.7.B 7.7.+.7.7.7.L 7.m a 7.~ P <.7.7.9 7., c A / x O.b x V a A 1.) F G K >.x H K 7.7.K p 7.7.7.7.7.7.7.7.7.7.7.7.",
"7.7.7.7.7.7.7.7.7.+.P 7.P > 7.7.0 : 4 K C K E a t 7.N P 9 P F a t z K 1 : I j K | [ K 4.x . < F 7.- 4 7.7.C 7.7.7.7.7.7.7.7.7.7.",
"7.7.7.7.7.7.7.7.7.| y :.q = 7.a l K a 3 Z C K K F r G A m a 1 A K : K K X a K a A $.1 ] 6 X z 1 G K a 7.S K 7.7.7.7.7.7.7.7.7.7.",
"7.7.7.7.7.7.7.p 7.h a K G a h # K a z g O a K 8 L | G G 4.z g 1 a K a K a g z 1 1 a a K g a a : K a A k   7.7.d K 7.7.7.7.7.7.7.",
"7.7.7.7.7.7.7.H A 1 z K F F < 6 K K K a O g K m K x %.a a K K K K a K a $.4.K K K a K K K K a a g K K 4 $ 7.J C 7.7.7.7.7.7.7.7.",
"7.7.7.7.7.7.7.A 4.K g a z 6 K K K 4.K K K 1 t a b m K 5 g a a K a : a K K $.4.K 4.K K a K a K K K 4.g K c w A f 7.7.7.7.7.7.7.7.",
"7.7.7.7.7.7.7.7.K G 6 K K K a K K K 4.K K K g 1 A 6 K 1 : a K K a : K K K K $.4.K K a K K K a K K K ] b C 7.K p 7.h C 7.7.7.7.7.",
"7.7.7.7.7.7.a 7.H 1 K K $.K K 4.a K $.K 4.a a K a O a K K K K K K a a K a K a K K a K K $.K K 4.a K $.x ;.h a K a - 7.7.7.7.7.7.",
"7.7.7.7.7.7.a * K g K K K 4.a $.a K K a K K K $.K K a K K 4.K a K a K K a K a : K K K K K 4.a $.a K z 3 G G N U c 7.7.7.7.7.7.7.",
"7.7.7.7.7.7.7.; 1 g K a K K K K K a K a K a K K $.4.K K 4.$.K K K K 4.K K 4.K : a K K a K K K K K a g a Z a K P 7.7.7.7.7.7.7.7.",
"7.7.7.7.7.X.A g K $.K K K a K a a K K K a : K K K $.4.K $.K K a a K K 4.K 4.K K K $.K K K a K a a K K g 1 . D x G 7.7.7.7.7.7.7.",
"7.7.7.7.N m K 1 g K 4.K K K a a K K : K K : K a K a $.K a K : K K a K a K K K a K K 4.K K K a a K K : K K : z 4 K j 7.7.7.7.7.7.",
"7.7.7.7.7.7.h z l K $.K 4.K K : a K K K K a K K K K K K K a K K K a K K K : a K K K $.K 4.K K : a K K K K 1 l A Z D 7.7.7.7.7.7.",
"7.7.7.7.7.K m a v l K a K K a : K K 4.K K K K K a K K a K K K : K K K 4.K K K a K K K a K K a : K K 4.K K K z n 1 x 7.7.7.7.7.7.",
"7.7.7.7.7.7.5 O K 6 K K a K K K K a $.4.K K 4.K K a : a K $.K K K 4.$.K K a K : K a K K a K K K K a $.4.K K ! l A a : t 7.7.7.7.",
"7.7.7.7.a s 7.+ v + 1 K K K K a K a K $.a 4.a K a K : K K K 4.K 4.$.K K a a K : K : a K K K K a K a K $.a 4.a K 6 g : K 7.7.7.7.",
"7.7.7.7.7.z H w K l K a K 4.K K K K a a K K K a K a K a a K $.K $.K K K K K K a K K K a K 4.K K K K a a K K K 1 t a P 7.7.7.7.7.",
"7.7.7.7.7.C &.m K 6 K K K $.4.K K 4.K K K a K K : a K K : K K a K a K a K K 4.K K a K K K $.4.K K 4.K K K a g 5 ; h C 7.7.7.7.7.",
"7.7.K H a B ' t ] K a K K K $.a 4.a K a K K K K K K K K K a K K a K K K a K $.K 4.K a K K K $.a 4.a K a K K z K A t g 7.7.7.7.7.",
"7.7.7., 0 G t 1 a K K : a K K K K K K K K 4.K a K K 4.K K K a K K : K : a K K a a K K : a K K K K K K K K 4.g y K D ,.7.7.7.7.7.",
"7.7.7.7.L k 6 K K a K K K a K K a : a K K K $.4.K 4.$.K K a : K K K a : K K a K K a K K K a K K a : a K K K ( 4.N -.7.7.7.7.7.7.",
"7.7.7.7.7.H l K a K 4.K K K K K a K K K a a K $.K $.a a K K K a K a K K K K K K a K 4.K K K K K a K K K a a g $.K *.a a S 7.7.7.",
"7.7.7.7.J o.v 4.K a $.4.K K 4.K K K K a K : K K K a a K K a K K K K $.K K 4.K 4.K a $.4.K K 4.K K K K a K : K g t 6 1 K 7.7.7.7.",
"7.7.7.H K `  .K g a K $.K 4.a a K 4.K K K K K K a K : K K 4.K a K 4.a K K $.4.K K a K $.K 4.a a K 4.K K K K K K 1 l : 7.7.7.7.7.",
"7.7.7.7.7.N { 1 a a K K a K K : K K $.4.K K 4.K K K : a K K 4.K 4.$.K K a K $.a a a K K a K K : K K $.4.K K 4.K z K @ t 7.7.7.7.",
"7.7.7.7.7.L e K K : K K K K a K a K K $.K 4.K K : a K K a K $.K $.K a K K K a K K : K K K K a K a K K $.K 4.K K : a A C t 7.7.7.",
"7.7.7.7.G a < g a K K 4.K a a K a K a K a K a a K K a K K a a K K K K a K a a K a K K 4.K a a K a K a K a K a a K K 6 N K 7.7.7.",
"7.7.7.7.7.V b ! z K a a K K a K K : K a K K K K $.K K K K K K a K a K K a K K 4.K K a a K K a K K : K a K K K g $.K m P 7.7.7.7.",
"7.7.7.7.7.a F g $.K 4.K K K K K a K K a K : K K a 4.K 4.K a a K K K a a K a K K $.K 4.K K K K K a K K a K : K K a ] Z 4.7.7.7.7.",
"7.7.7.5 F t x 1 K K K : K a K 4.K K a K K a K K a K K K a K K a a a a K K a K a K K K : K a K 4.K K a K K a K K 1 g K K d 7.7.7.",
"7.7.7.7.K K y K O K a : K a K $.K a 4.a K K a K K K a K : K 4.K a K K $.K K a K : K a : K a K $.K a 4.a K K 1 z 5 A 4 H 7.7.7.7.",
"7.7.7.7.7.t K g g K a K K K K K a K K K $.4.K a K : a a K a $.4.K 4.$.K K a K K K K a K K K K K a K K K $.4.z 4 m % e 9 7.7.7.7.",
"7.7.7.I G a m R ! K K K 4.K K K K : K a K $.K 4.K : a K : K K $.K 4.K K K a K 4.4.K K K 4.K K K K : K a K $.l 4.H X p 7.7.7.7.7.",
"7.7.7.2 . A 2 z $.4.K 4.K : a K a : a K K K $.a a K K K a K K a K K K a : K a K $.4.K 4.K : a K a : a K K K Y y 0 H N 7.7.7.7.7.",
"7.7.7.7.& 9 K i n $.a 4.a : K a K K a a K K K K K a K K K a a K K : K K : a K a K $.a 4.a : K a K K a a K g z k G a A 7.7.7.7.7.",
"7.7.7.7.7.H 7.d 1 6 1 K K a a : K a K K : a K a K $.K K 4.K K a a K a K a K K a a a a K K a a : K a K K : a g 4 A Q K 7.7.7.7.7.",
"7.7.7.7.} 4.K K k < K K K K a a K K K a : K K K K K 4.a a K K K K a K a $.4.K K K a K K K K a a K K K a : K K g n K ] e 7.7.7.7.",
"7.7.e K 7.$.4.F 4.A A a K a K K K 4.K K K a K a K K K K K a a K a : a K K $.4.K 4.K K a K a K K K 4.K K K a K 6 l z K 7.7.7.7.7.",
"7.7.7.V n k ` @.v n 1 K K K a K K K 4.K K K K a K a K a : a K K a : K K K K $.4.K K a K K K a K K K 4.K K K K 1 k p K i 7.7.7.7.",
"7.7.7.7.f v 4 K V 0 K K $.K K 4.a K $.K 4.a a K a : a K K K K K K a a K a K a K K a K K $.K K 4.a K $.K 4.a a g y : 3 M 7.7.7.7.",
"7.7.7.7.7.A 7 ; A D g K K 4.a $.a K K a K K K $.K K a K K 4.K a K a K K a K a : K K K K K 4.a $.a K K a K K g ( F 5 h 7.7.7.7.7.",
"7.7.7.7.7.4.k . 6 z K a K K K K K a K a K a K K $.4.K K 4.$.K K K K 4.K K 4.K : a K K a K K K K K a K a K a K z $.-.A 7.7.7.7.7.",
"7.7.7.7.7.2.g g K $.K K K a K a a K K K a : K K K $.4.K $.K K a a K K 4.K 4.K K K $.K K K a K a a K K K a : K 5 x ~ >.7.7.7.7.7.",
"7.7.7.7.7.K m a g K 4.K K K a a K K : K K : K a K a $.K a K : K K a K a K K K a K K 4.K K K a a K K : K K : K a A 7.7.7.7.7.7.7.",
"7.7.7.7.7.7.a L g K $.K 4.K K : a K K K K a K K K K K K K a K K K a K K K : a K K K $.K 4.K K : a g g z z 1 A A L 7.7.7.7.7.7.7.",
"7.7.7.7.7.7.7.e D z K a K K a : K K 4.K K K K K a K K a K K K : K K K 4.K K K a K K K a K K a : z K 4.x z K P 7.7.7.7.7.7.7.7.7.",
"7.7.7.7.7.7.c : K 2 5 K a K K K K a $.4.K K 4.K K a : a K $.K K K 4.$.K K a K : g a K K a K K K K i $.6.K V 7.7.7.7.7.7.7.7.7.7.",
"7.7.7.7.7.7.7.7.7.7.7.F g K g a g a K $.a 4.a K a g : K K K 4.K 4.$.K K a 1 g X g O a K K K K a x j 7.7.a 3.7.7.7.7.7.7.7.7.7.7.",
"7.7.7.7.7.7.7.7.7.A H y K 4.5 x z g a a K K g 1 g 1 z 1 a K $.K $.K K g g A n a A K K a K ! g g G K 7.a c C K 7.7.7.7.7.7.7.7.7.",
"7.7.7.7.7.7.7.7.7.7.7.A F Q ..L K ! l z K a z K : a K K : K K a K a l a K K ! n x a K g z T =.v A o.7.7.C 3 B 7.7.7.7.7.7.7.7.7.",
"7.7.7.7.7.7.7.7.7.7.7.7.F K ' 7.@.a t a K g 5 L z v b b l a K K a l K F 6 g W K R t 6 K z K { y 7.7.7.7.7.7.7.7.7.7.7.7.7.7.7.7.",
"7.7.7.7.7.7.7.7.7.7.7.7.q 7.7.7.K F K G k ! A h n C 4.H D g a g z o K   a M b 6 h A K ; 6 K H K 7.7.7.7.7.7.7.7.7.7.7.7.7.7.7.7.",
"7.7.7.7.7.7.7.7.7.7.7.7.7.7.7.7.7.* 2 K t C ^ >.L >.| C K h @ K A A a ; K H p K P < F A K u C 7.7.7.7.7.7.7.7.7.7.7.7.7.7.7.7.7.",
"7.7.7.7.7.7.7.7.7.7.7.7.7.7.7.7.7.7.J K y 7.7.( 7.#.7.i x 7.K 7 A e 7.7.7.L 7.7.7.P 5.7.7.7.C 7.7.7.7.7.7.7.7.7.7.7.7.7.7.7.7.7.",
"7.7.7.7.7.7.7.7.7.7.7.7.7.7.7.7.7.7.7.p 7.7.7.G 7.7.7.L L 7.K S 7.7.7.7.7.7.7.7.7.7.7.7.7.7.7.7.7.7.7.7.7.7.7.7.7.7.7.7.7.7.7.7.",
"7.7.7.7.7.7.7.7.7.7.7.7.7.7.7.7.7.7.7.7.7.7.7.7.7.7.7.7.7.7.7.7.7.7.7.7.7.7.7.7.7.7.7.7.7.7.7.7.7.7.7.7.7.7.7.7.7.7.7.7.7.7.7.7.",
"7.7.7.7.7.7.7.7.7.7.7.7.7.7.7.7.7.7.7.7.7.7.7.7.7.7.7.7.7.7.7.7.7.7.7.7.7.7.7.7.7.7.7.7.7.7.7.7.7.7.7.7.7.7.7.7.7.7.7.7.7.7.7.7.",
"7.7.7.7.7.7.7.7.7.7.7.7.7.7.7.7.7.7.7.7.7.7.7.7.7.7.7.7.7.7.7.7.7.7.7.7.7.7.7.7.7.7.7.7.7.7.7.7.7.7.7.7.7.7.7.7.7.7.7.7.7.7.7.7.",
"7.7.7.7.7.7.7.7.7.7.7.7.7.7.7.7.7.7.7.7.7.7.7.7.7.7.7.7.7.7.7.7.7.7.7.7.7.7.7.7.7.7.7.7.7.7.7.7.7.7.7.7.7.7.7.7.7.7.7.7.7.7.7.7."
};
