/* XPM */
static char *result[] = {
/* columns rows colors chars-per-pixel */
"64 64 17 1 ",
"  c #3F1C0E",
". c #1D290E",
"X c #2B3B18",
"o c #28292D",
"O c #303138",
"+ c #6A331E",
"@ c #53732C",
"# c #41424A",
"$ c #4D4F5A",
"% c #884931",
"& c #ECFF00",
"* c #919970",
"= c #908C8C",
"- c #BBC29C",
"; c #C9DBB4",
": c gray83",
"> c None",
/* pixels */
">>>>>>>>>>>>>>>>>>>>>>>>>>>>>>>>>>>>>>>>>>>>>>>>>>>>>>>>>>>>>>>>",
">>>>>>>>>>>>>>>>>>>>>>>>>>>>>>>>>>>>>>>>>>>>>>>>>>>>>>>>>>>>>>>>",
">>>>>>>>>>>>>>>>>>>>>>>>>>>>>>>>>>>>>>>>>>>>>>>>>>>>>>>>>>>>>>>>",
">>>>>>>>>>>>>>>>>>>>>>>>>>>>>>>>>>>>>>>>>>>>>>>>>>>>>>>>>>>>>>>>",
">>>>>>>>>>>>>>>>>>>>>>>>>>>>>>>>>>>>>>>>>>>>>>>>>>>>>>>>>>>>>>>>",
">>>>>>>>>>>>>>>>>>>>>>>>>>>>>>>>>>>>>>>>>>>>>>>>>>>>>>>>>>>>>>>>",
">>>>>>>>>>>>>>>>>>>>>>>>>>>>>>>>>>>>>>>>>>>>>>>>>>>>>>>>>>>>>>>>",
">>>>>>>>>>>>>>>>>>>>>>>>>>>>>>>>>>>>>>>>>>>>>>>>>>>>>>>>>>>>>>>>",
">>>>>>>>>>>>>>>>>>>>>>>>>>>>>>>>>>>>>>>>>>>>>>>>>>>>>>>>>>>>>>>>",
">>>>>>>>>>>>>>>>>>>>>>>>>>>>>>>>>>>>>>>>>>>>>>>>>>>>>>>>>>>>>>>>",
">>>>>>>>>>>>>>>>>>>>>>>>>>>>>>>>>>>>>>>>>>>>>>>>>>>>>>>>>>>>>>>>",
">>>>>>>>>>>>>>>>>>>>>>>>>>>>>>>>>>>>>>>>>>>>>>>>>>>>>>>>>>>>>>>>",
">>>>>>>>>>>>>>>>>>>>>>>>>>>>>>>>>>>>>>>>>>>>>>>>>>>>>>>>>>>>>>>>",
">>>>>>>>>>>>>>>>>>>>>>>>>>>>>>>>>>>>>>>>>>>>>>>>>>>>>>>>>>>>>>>>",
">>>>>>>>>>>>>>>>>>>>>>>>>>>>>>>>>>$>>>>>>>>>>>>>>>>>>>>>>>>>>>>>",
">>>>>>>>>>>>>>>>>>>>>>>>>>>>>>>>>>O##>>>>>>>>>>>>>>>>>>>>>>>>>>>",
">>>>>>>>>>>>>>>>>>>>>>>>>>X@>>>>>>>O#>>>>>>>>>>>>>>>>>>>>>>>>>>>",
">>>>>>>>>>>>>>>>>>>>>>>>>>XX@@@>>>>OO#>>>>@>>>>>>>>>>>>>>>>>>>>>",
">>>>>>>>>>>>>>>>>>>>>>>>>>>XXX@@@>>@OO@>>>@>>>>>>>>>>>>>>>>>>>>>",
">>>>>>>>>>>>>>>>>>>>>>>>>>>>XXX@@X@@@@@@>@X>>>>>>>>>>>>>>>>>>>>>",
">>>>>>>>>>>>>>>>>>>>>>>>>>>>>XXX@@X@@@@@X@X>>>>>>>>>>>>>>>>>>>>>",
">>>>>>>>>>>>>>>>>>>>>>>>>>>>>>XXX@X&&X@&@XX>>>>>>>>>>>>>>>>>>>>>",
">>>>>>>>>>>>>>>>>>>>>>>>>>>>>>>XXXX&&XX&XX>>>>>>>>>>>>>>>>>>>>>>",
">>>>>>>>>>>>>>>>>>>>>>>>>>>>>>>>XXXX@@XXXX>>>>>>>>>>>>>>>>>>>>>>",
">>>>>>>>>>>>>>>>>>>>>>>>>>>>%%%%X.XXX@@@X>>>>>>>>>>>>>>>>>>>>>>>",
">>>>>>>>>>>>>>>>>>>>>>>>@@@@@X%+X.;.XX@@>>>>>>>>>>>>>>>>>>>>>>>>",
">>>>>>>>>>>>>>>>>>>>>>@@@XXXXX%%+X..XXX@>>>>>>>>>>>>>>>>>>>>>>>>",
">>>>>>>>>>>>>>>>>>>>>@@XXXXXXX+%%XX;.XXX>>>>>>>>>>>>>>>>>>>>>>>>",
">>>>>>>>>>>>>>>>>>>>-@XX>>>>++%%%+XX.;.X>>>>>>>>>>>>>>>>>>>>>>>>",
">>>>>>>>>>>>>>>  >>--*X>>>>>+%%%%++X##XX@>>>>>>>>>>>>>>>>>>>>>>>",
">>>>>>>>>>>>>>>   --**>>>>>>>%%%%%++#O+XX@>>>>>>>>>>>>>>>>>>>>>>",
">>>>>>>>>>>>>>>>@@@*>>>>>>>>>%%%++++O++>XX@>>>>>>>>>>>>>>>>>>>>>",
">>>>>>>>>>>>>>>>X@@@X>>>>>>>>>++++++++>>>XX@@@>>>>>>>>>>>>>>>>>>",
">>>>>>>>>>>>>>>>>XXXX>>>>>>>>#       >>>>>>XXX@@>>>>>>>>>>>>>>>>",
">>>>>>>>>>>>>>>>>XX :>>>>>>###o++++++#>>>>>>@@XX>>>>>>>>>>>>>>>>",
">>>>>>>>>>>>>>>>>> =:>>>>>####o%%%%++###>>>>@X>X>>>>>>>>>>>>>>>>",
">>>>>>>>>>>>>>>>>>:==:>>>###ooo%%%++o####>>>X>>>>>>>>>>>>>>>>>>>",
">>>>>>>>>>>>>>>>>>>:=:>>####oooo%+++o#####>>>>>>>>>>>>>>>>>>>>>>",
">>>>>>>>>>>>>>>>>>>>:=:>###ooooo%++ooo#####>>>>>>>>>>>>>>>>>>>>>",
">>>>>>>>>>>>>>>>>>>>>:==##oooooo+++ooo######>>>>>>>>>>>>>>>>>>>>",
">>>>>>>>>>>>>>>>>>>>>>:=:oooooo%++>>>ooo##oo>>>>>>>>>>>>>>>>>>>>",
">>>>>>>>>>>>>>>>>>>>>>>:==:ooo>++>>>>>oo#ooo>>>>>>>>>>>>>>>>>>>>",
">>>>>>>>>>>>>>>>>>>>>>%%+o=:o>>+>>>>>+++%+++>>>>>>>>>>>>>>>>>>>>",
">>>>>>>>>>>>>>>>>>>>>>%%++oo>>>>>>>>>++%%++>>>>>>>>>>>>>>>>>>>>>",
">>>>>>>>>>>>>>>>>>>>>%%%++>>>>>>>>>>%%%%+>>>>>>>>>>>>>>>>>>>>>>>",
">>>>>>>>>>>>>>>>>>>>>%%+++>>>>>>>>>>%%%+>>>>>>>>>>>>>>>>>>>>>>>>",
">>>>>>>>>>>>>>>>>>>>>%%++>>>>>>>>>>>%%+>>>>>>>>>>>>>>>>>>>>>>>>>",
">>>>>>>>>>>>>>>>>>>>%%++>>>>>>>>>>>>%+++>>>>>>>>>>>>>>>>>>>>>>>>",
">>>>>>>>>>>>>>>>>>%%%++>>>>>>>>>>>>>+++++>>>>>>>>>>>>>>>>>>>>>>>",
">>>>>>>>>>>>>>>>>%%%+++>>>>>>>>>>>>>>>++++>>>>>>>>>>>>>>>>>>>>>>",
">>>>>>>>>>>>>>>>>>>>>>>>>>>>>>>>>>>>>>>>>>>>>>>>>>>>>>>>>>>>>>>>",
">>>>>>>>>>>>>>>>>>>>>>>>>>>>>>>>>>>>>>>>>>>>>>>>>>>>>>>>>>>>>>>>",
">>>>>>>>>>>>>>>>>>>>>>>>>>>>>>>>>>>>>>>>>>>>>>>>>>>>>>>>>>>>>>>>",
">>>>>>>>>>>>>>>>>>>>>>>>>>>>>>>>>>>>>>>>>>>>>>>>>>>>>>>>>>>>>>>>",
">>>>>>>>>>>>>>>>>>>>>>>>>>>>>>>>>>>>>>>>>>>>>>>>>>>>>>>>>>>>>>>>",
">>>>>>>>>>>>>>>>>>>>>>>>>>>>>>>>>>>>>>>>>>>>>>>>>>>>>>>>>>>>>>>>",
">>>>>>>>>>>>>>>>>>>>>>>>>>>>>>>>>>>>>>>>>>>>>>>>>>>>>>>>>>>>>>>>",
">>>>>>>>>>>>>>>>>>>>>>>>>>>>>>>>>>>>>>>>>>>>>>>>>>>>>>>>>>>>>>>>",
">>>>>>>>>>>>>>>>>>>>>>>>>>>>>>>>>>>>>>>>>>>>>>>>>>>>>>>>>>>>>>>>",
">>>>>>>>>>>>>>>>>>>>>>>>>>>>>>>>>>>>>>>>>>>>>>>>>>>>>>>>>>>>>>>>",
">>>>>>>>>>>>>>>>>>>>>>>>>>>>>>>>>>>>>>>>>>>>>>>>>>>>>>>>>>>>>>>>",
">>>>>>>>>>>>>>>>>>>>>>>>>>>>>>>>>>>>>>>>>>>>>>>>>>>>>>>>>>>>>>>>",
">>>>>>>>>>>>>>>>>>>>>>>>>>>>>>>>>>>>>>>>>>>>>>>>>>>>>>>>>>>>>>>>",
">>>>>>>>>>>>>>>>>>>>>>>>>>>>>>>>>>>>>>>>>>>>>>>>>>>>>>>>>>>>>>>>"
};
