/* XPM */
static char *result[] = {
/* columns rows colors chars-per-pixel */
"64 64 242 2 ",
"   c #000000",
".  c #0F0000",
"X  c #1D0000",
"o  c #140000",
"O  c #240000",
"+  c #2B0000",
"@  c #3C0000",
"#  c #440100",
"$  c #4B0700",
"%  c #5C0100",
"&  c #540200",
"*  c #591901",
"=  c #4F1201",
"-  c #640000",
";  c #6B0000",
":  c #610B00",
">  c #7A0101",
",  c #770402",
"<  c #661901",
"1  c #761704",
"2  c #7D0018",
"3  c #5D2102",
"4  c #682802",
"5  c #7E2D00",
"6  c #732D05",
"7  c #693309",
"8  c #7C3303",
"9  c #7B3C0B",
"0  c #773A04",
"q  c #743D14",
"w  c #681E2D",
"e  c #7B4405",
"r  c #794B16",
"t  c #6C4F0F",
"y  c #674C30",
"u  c #7C6C25",
"i  c #765857",
"p  c #756558",
"a  c #7C7063",
"s  c #840000",
"d  c #8B0000",
"f  c #81000D",
"g  c #930000",
"h  c #9C0000",
"j  c #930008",
"k  c #910D0B",
"l  c #AB0000",
"z  c #A50000",
"x  c #B80300",
"c  c #A71600",
"v  c #B6100F",
"b  c #853805",
"n  c #952D06",
"m  c #B72604",
"M  c #B22F0F",
"N  c #922C31",
"B  c #B53936",
"V  c #BF0129",
"C  c #CA0005",
"Z  c #CC0A05",
"A  c #C63606",
"S  c #C53916",
"D  c #C3221E",
"F  c #C60C2F",
"G  c #C63B26",
"H  c #D12F32",
"J  c #874309",
"K  c #96470B",
"L  c #8B5319",
"P  c #965415",
"I  c #914D0A",
"U  c #A95501",
"Y  c #B45900",
"T  c #AA4818",
"R  c #A35311",
"E  c #A95814",
"W  c #B7501A",
"Q  c #946615",
"!  c #B56D00",
"~  c #BB6E00",
"^  c #BB6603",
"/  c #BD6B1C",
"(  c #B66619",
")  c #B46D0F",
"_  c #935D31",
"`  c #8B4C26",
"'  c #B24F2D",
"]  c #9A6B26",
"[  c #916A2B",
"{  c #BB7833",
"}  c #A0692A",
"|  c #C94D00",
" . c #CD4B19",
".. c #CD6C00",
"X. c #C46803",
"o. c #CC7409",
"O. c #D27C03",
"+. c #D17805",
"@. c #C36C1B",
"#. c #C4731E",
"$. c #CB751E",
"%. c #CE7819",
"&. c #D47C14",
"*. c #D47D1A",
"=. c #D46D1C",
"-. c #CB4729",
";. c #CA4A3B",
":. c #D8573C",
">. c #D14A2E",
",. c #C86926",
"<. c #D2682B",
"1. c #CD7922",
"2. c #CE7621",
"3. c #D27C21",
"4. c #DA7828",
"5. c #D9683A",
"6. c #D9773D",
"7. c #C67235",
"8. c #E37C35",
"9. c #D73B56",
"0. c #D82F4B",
"q. c #8B5B52",
"w. c #A6524D",
"e. c #89685A",
"r. c #95695B",
"t. c #8F755D",
"y. c #B77859",
"u. c #B16D59",
"i. c #907464",
"p. c #A57867",
"a. c #CA5247",
"s. c #D85446",
"d. c #DA5853",
"f. c #CC4F4B",
"g. c #E15F54",
"h. c #DD6859",
"j. c #D57656",
"k. c #E26852",
"l. c #DB5674",
"z. c #D97373",
"x. c #CF716F",
"c. c #E26E68",
"v. c #E37269",
"b. c #E67A78",
"n. c #BB832E",
"m. c #DA8400",
"M. c #D58801",
"N. c #D8841B",
"B. c #D48A00",
"V. c #E49100",
"C. c #EAAC04",
"Z. c #C88629",
"A. c #DA8323",
"S. c #D68527",
"D. c #CB8935",
"F. c #DC8E3C",
"G. c #D58C35",
"H. c #DA9736",
"J. c #D8922E",
"K. c #E49838",
"L. c #E48F2E",
"P. c #ECA63C",
"I. c #F7C605",
"U. c #FCD62A",
"Y. c #F7CA30",
"T. c #B18456",
"R. c #B98667",
"E. c #AC8A77",
"W. c #D69847",
"Q. c #D79759",
"!. c #D98650",
"~. c #E58748",
"^. c #EA9D43",
"/. c #E59848",
"(. c #E3895A",
"). c #F19F48",
"_. c #DCA155",
"`. c #DDB944",
"'. c #F2AC4B",
"]. c #F5A749",
"[. c #F4B748",
"{. c #E4A454",
"}. c #E3A65A",
"|. c #F7B956",
" X c #ECB153",
".X c #C68865",
"XX c #DA9B66",
"oX c #D68C74",
"OX c #E58277",
"+X c #E99876",
"@X c #E29762",
"#X c #DAA366",
"$X c #E4AA64",
"%X c #E9A765",
"&X c #F0AE6F",
"*X c #F4C949",
"=X c #FDD749",
"-X c #F8C857",
";X c #FDDA57",
":X c #EBCA4C",
">X c #FEE454",
",X c #FACD64",
"<X c #D9C047",
"1X c #DE6580",
"2X c #E17880",
"3X c #9D898C",
"4X c #DB8E82",
"5X c #E49384",
"6X c #E9979C",
"7X c #EA8380",
"8X c #D3B29F",
"9X c #EEBC82",
"0X c #EEAE9D",
"qX c #D7BBA3",
"wX c #CABAA8",
"eX c #F1A3A2",
"rX c #F4C284",
"tX c #F9C788",
"yX c #F9DD8C",
"uX c #ECC398",
"iX c #EEC18B",
"pX c #DDC1A4",
"aX c #EDC9A3",
"sX c #E5C9AB",
"dX c #E9C8A8",
"fX c #F4C9A7",
"gX c #F4D1AA",
"hX c #F9D4AA",
"jX c #E1CDB6",
"kX c #E9D3BA",
"lX c #F4DABB",
"zX c #F9DCBB",
"xX c #F5D7B6",
"cX c #FEE3B3",
"vX c #FEE78E",
"bX c #F6DFC1",
"nX c #F7E4CA",
"mX c #F3E1DF",
"MX c #FAEEE3",
"NX c #F4EEE2",
"BX c #F7ECE4",
"VX c None",
/* pixels */
"VXVXVXVXVXVXVXVXVXVXVXVXVXVXVXVXVXVXVXVXVXVXVXVXVXVXVXVXVXVXVXVXVXVXVXVXVXVXVXVXVXVXVXVXVXVXVXVXVXVXVXVXVXVXVXVXVXVXVXVXVXVXVXVX",
"VXVXVXVXVXVXVXVXVXVXVXVXVXVXVXVXVXVXVXVXVXVXVXVXVXVXVXVXVXVXVXVXVXVXVXVXVXVXVXVXVXVXVXVXVXVXVXVXVXVXVXVXVXVXVXVXVXVXVXVXVXVXVXVX",
"VXVXVXVXVXVXVXVXVXVXVXVXVXVXVXVXVXVXVXVXVXVXVXVXVXVXVXVXVXVXVXVXVXVXVXVXVXVXVXVXVXVXVXVXVXVXVXVXVXVXVXVXVXVXVXVXVXVXVXVXVXVXVXVX",
"VXVXVXVXVXVXVXVXVXVXVXVXVXVXVXVXVXVXVXVXVXVXVXVXVXVXVXVXVXVXVXVXVXVXVXVXVXVXVXVXVXVXVXVXVXVXVXVXVXVXVXVXVXVXVXVXVXVXVXVXVXVXVXVX",
"VXVXVXVXVXVXVXVXVXVXVXVXVXVXVXVXVXVXVXVXVXVXVXVXVXVXVXVXVXVXVXVXVXVXVXVXVXVXVXVXVXVXVXVXVXVXVXVXVXVXVXVXVXVXVXVXVXVXVXVXVXVXVXVX",
"VXVXVXVXVXVXVXVXVXVXVXVXVXVXVXVXVXVXVXVXVXVXVXVXVXVXVXVXVXVXVXVXVXVXVXVXVXVXVXVXVXVXVXVXVXVXVXVXVXVXVXVXVXVXVXVXVXVXVXVXVXVXVXVX",
"VXVXVXVXVXVXVXVXVXVXVXVXVXVXVXVXVXVXVXVXVXVXVXVXVXVXVXVXVXVXVXVXVXVXVXVXVXVXVXVXVXVXVXVXVXVXVXVXVXVXVXVXVXVXVXVXVXVXVXVXVXVXVXVX",
"VXVXVXVXVXVXVXVXVXVXVXVXVXVXVXVXVXVXVXVXVXVXVXVXVXVXVXVXVXVXVXVXVXVXVXVXVXVXVXVXVXVXVXVXVXVXVXVXVXVXVXVXVXVXVXVXVXVXVXVXVXVXVXVX",
"VXVXVXVXVXVXVXVXVXVXVXVXVXVXVXVXVXVXVXVXVXVXVXVXVXVXVXVXVXVXVXVXVXVXVXVX  O : < $ X .   VXVXVXVXVXVXVXVXVXVXVXVXVXVXVXVXVXVXVXVX",
"VXVXVXVXVXVXVXVXVXVXVXVXVXVXVXVXVXVXVXVXVXVXVXVXVXVXVXVXVXVXVXVXVXVXVXVXr L 6 ; % - > ; VXVXVXVXVXVXVXVXVXVXVXVXVXVXVXVXVXVXVXVX",
"VXVXVXVXVXVXVXVXVXVXVXVXVXVXVXVXVXVXVXVXVXVXVXVXVXVXVXVXVXVXVXVX      b Z.D.r O - d l h $   VXVXVXVXVXVXVXVXVXVXVXVXVXVXVXVXVXVX",
"VXVXVXVXVXVXVXVXVXVXVXVXVXVXVXVXVXVXVXVXVXVXVXVXVXVXVXVXVXVXVXVX0 [ r.R.W.D.b , T ,.6.S.n.u VXVXVXVXVXVXVXVXVXVXVXVXVXVXVXVXVXVX",
"VXVXVXVXVXVXVXVXVXVXVXVXVXVXVXVXVXVXVXVXVXVXVXVXVXVXVXVXVXVX  3 ! }.gXpXi.- g W W.[.*X=X>X`.[       VXVXVXVXVXVXVXVXVXVXVXVXVXVX",
"VXVXVXVXVXVXVXVXVXVXVXVXVXVXVXVXVXVXVXVXVXVXVXVXVXVXVXVXVXVX4 { }.rXdXwXt.b @.L.).|.-X;X;X<XQ X r L VXVXVXVXVXVXVXVXVXVXVXVXVXVX",
"VXVXVXVXVXVXVXVXVXVXVXVXVXVXVXVXVXVXVXVXVXVXVXVXVXVXVXVX  e ! }.hXsXp.I D.{.*X*X~.k.k.F.D.] + & Z.D.r   VXVXVXVXVXVXVXVXVXVXVXVX",
"VXVXVXVXVXVXVXVXVXVXVXVXVXVXVXVXVXVXVXVXVXVXVXVXVXVXVXVX  _ _.rXhXjX3XE. X;X>X-X(.0.0.F g 2 i p./.J.P   VXVXVXVXVXVXVXVXVXVXVXVX",
"VXVXVXVXVXVXVXVXVXVXVXVXVXVXVXVXVXVXVXVXVXVXVXVXVXVXVXVX  r.pXhX&XuXNXNXvXU.*X|.OXl.0.v ; p wXsX#XX.e   VXVXVXVXVXVXVXVXVXVXVXVX",
"VXVXVXVXVXVXVXVXVXVXVXVXVXVXVXVXVXVXVXVXVXVXVXVXVXVXVXVX> R.kXlXW.#XmXMXyXY.].&X9X+X(.,.% p sXgX}.Y 8   VXVXVXVXVXVXVXVXVXVXVXVX",
"VXVXVXVXVXVXVXVXVXVXVXVXVXVXVXVXVXVXVXVXVXVXVXVXVXVX  e ~ $XzXkXT.r x.4X~.~.b.+X,X,X;X`.t y #X&X~.~ 0   VXVXVXVXVXVXVXVXVXVXVXVX",
"VXVXVXVXVXVXVXVXVXVXVXVXVXVXVXVXVXVXVXVXVXVXVXVXVXVX  _ _.tXhXpXe.% l C C 9.1X5X,X=X>X:X[ , M.V.N./ 9   VXVXVXVXVXVXVXVXVXVXVXVX",
"VXVXVXVXVXVXVXVXVXVXVXVXVXVXVXVXVXVXVXVXVXVXVXVXVXVX  r.dXhXrXQ.N d x C C d.1X2Xj.K.|.[.Y h o.S.A.#.9   VXVXVXVXVXVXVXVXVXVXVXVX",
"VXVXVXVXVXVXVXVXVXVXVXVXVXVXVXVXVXVXVXVXVXVXVXVXVXVX> R.kXzX%XO.~ T.5X5X(.~.+X+Xk.5.K.W..Xj.7.+.%.( 9   VXVXVXVXVXVXVXVXVXVXVXVX",
"VXVXVXVXVXVXVXVXVXVXVXVXVXVXVXVXVXVXVXVXVXVXVXVX  e ~ $XlXkX@XO.C.yXMXMXyXY.>X,X|.H.I t.qXdXXXX.^ P 6 O VXVXVXVXVXVXVXVXVXVXVXVX",
"VXVXVXVXVXVXVXVXVXVXVXVXVXVXVXVXVXVXVXVXVXVXVXVX  _ _.rXgXaXXXC.I.yXMXMXyXU.=X*X[.G., i sXgX@XX.U 8 * + VXVXVXVXVXVXVXVXVXVXVXVX",
"VXVXVXVXVXVXVXVXVXVXVXVXVXVXVXVXVXVXVXVXVXVXVXVX  r.pXgX&X,X;X*X^.j.7X5X(.~./.6.7.M d T #X&XH.~ K ; VXVXVXVXVXVXVXVXVXVXVXVXVXVX",
"VXVXVXVXVXVXVXVXVXVXVXVXVXVXVXVXVXVXVXVXVXVXVXVXs R.kXlX#XB.:X:X/.:. .H 0.0.H F s N u.Q.J.V.N.,.b # VXVXVXVXVXVXVXVXVXVXVXVXVXVX",
"VXVXVXVXVXVXVXVXVXVXVXVXVXVXVXVXVXVXVXVXVXVX  5 ~ $XzXlXR.M X.K.*X-X+Xl.d.>.G m % p qXaXQ.O.&./ b X VXVXVXVXVXVXVXVXVXVXVXVXVXVX",
"VXVXVXVXVXVXVXVXVXVXVXVXVXVXVXVXVXVXVXVXVXVXb { }.9XdXqXw.h l <.*X,X&X2Xg.G S c % i.kXzXXX..&.@.9   VXVXVXVXVXVXVXVXVXVXVXVXVXVX",
"VXVXVXVXVXVXVXVXVXVXVXVXVXVXVXVXVXVXVXVX. 5 ~ }.gXsXR.N x x C f.k.~.|.%X5.D M h g u.kXzXXX..N.,.e   VXVXVXVXVXVXVXVXVXVXVXVXVXVX",
"VXVXVXVXVXVXVXVXVXVXVXVXVXVXVXVXVXVXVXVX5 { }.tXxXdXT.Y 2X5X(.6.5.5.^.H.<.l s N u.oXdXaXQ...%.( 9   VXVXVXVXVXVXVXVXVXVXVXVXVXVX",
"VXVXVXVXVXVXVXVXVXVXVXVXVXVXVXVXVXVX  5 ~ }.dXhXtX,XY.yXNXBXyXI.[.^.7.T M g @ i qXgX9X}.F.X.( R 6 O VXVXVXVXVXVXVXVXVXVXVXVXVXVX",
"VXVXVXVXVXVXVXVXVXVXVXVXVXVXVXVXVXVXb { }.tXxXgX%XC.C.vXBXBXvX;X[.F.T , 2 , % E.kXzX$Xm.M.,.R 8 * + VXVXVXVXVXVXVXVXVXVXVXVXVXVX",
"VXVXVXVXVXVXVXVXVXVXVXVXVXVXVXVX. b ~ {.hXzXtX%X6.| ..j.4X6XfX0X(.| M f @ 4 ! #XlXlXXXo.&.@.R ; VXVXVXVXVXVXVXVXVXVXVXVXVXVXVXVX",
"VXVXVXVXVXVXVXVXVXVXVXVXVXVXVXVX8 { }.rXsXdX%XV.$. .-.| | k.6X6Xf.l g 1 4 ] {.rXgXaXQ...*.@.b # VXVXVXVXVXVXVXVXVXVXVXVXVXVXVXVX",
"VXVXVXVXVXVXVXVXVXVXVXVXVXVX  e ~ $XgXdXE.q.,.4.^.'.].).].).v.d.B d $ 4 ! _.aXgX9X}.G.o.A.#.b X VXVXVXVXVXVXVXVXVXVXVXVXVXVXVXVX",
"VXVXVXVXVXVXVXVXVXVXVXVXVXVX  I M.,XzXjXe.- z >.^.[.'.].'.^.L. .N > 4 ] Q.tXbXxX$Xm.O.2.3.( 9   VXVXVXVXVXVXVXVXVXVXVXVXVXVXVXVX",
"VXVXVXVXVXVXVXVXVXVXVXVXVXVX  e M.&XcXbXp.> x  .<.<.,.<.k.~.]./.` 1 ! _.uXlXnXxXXX+.+.2.@.R VXVXVXVXVXVXVXVXVXVXVXVXVXVXVXVXVXVX",
"VXVXVXVXVXVXVXVXVXVXVXVXVXVX% } Q.9XsX8Xu.h M S m Z D D F :.P.H.K ` W.tXlXnXlXuXQ...*.$.E b VXVXVXVXVXVXVXVXVXVXVXVXVXVXVXVXVXVX",
"VXVXVXVXVXVXVXVXVXVXVXVX  6 U .XaXpXE.q.w.B G A A G s.s.G  .' E h u.qXzXnXlXiX_.G.o.A.$.K # VXVXVXVXVXVXVXVXVXVXVXVXVXVXVXVXVXVX",
"VXVXVXVXVXVXVXVXVXVXVXVX  b X.%XzXjXq.& B a.G A S G s.s.-.m d d m oXxXnXlXuX{.m.&.2.3.( 7   VXVXVXVXVXVXVXVXVXVXVXVXVXVXVXVXVXVX",
"VXVXVXVXVXVXVXVXVXVXVXVX  b ^ %XlXjXe.; ;.s.G A -.>.G S A c , b o.$XlXlXiX{.G.O.*.2.@.R VXVXVXVXVXVXVXVXVXVXVXVXVXVXVXVXVXVXVXVX",
"VXVXVXVXVXVXVXVXVXVXVXVX  6 Y XXxXjXi.> f.g.>.a.v.c.s.S a.;.; ` W.rXgXaX{.m.O.3.3.2.E 8 VXVXVXVXVXVXVXVXVXVXVXVXVXVXVXVXVXVXVXVX",
"VXVXVXVXVXVXVXVXVXVXVXVXO < n .XkXjXe.f z.b.s.h.eXeXg.>.v.x.2 e.pXhXiX_.G.O.%.1.S.1.K # VXVXVXVXVXVXVXVXVXVXVXVXVXVXVXVXVXVXVXVX",
"VXVXVXVXVXVXVXVXVXVXVXVX+ : s R.gXjXe., x.b.h.b.eXeX7Xb.2Xz.> e.jXzX$Xm.O.1.3.1.1.E 7   VXVXVXVXVXVXVXVXVXVXVXVXVXVXVXVXVXVXVXVX",
"VXVXVXVXVXVXVXVXVXVXVXVX+ : k R.kXkXe.; f.c.b.b.c.b.eXeXb.a.; a jXzXXX+.&.$.A.2.P 4 VXVXVXVXVXVXVXVXVXVXVXVXVXVXVXVXVXVXVXVXVXVX",
"VXVXVXVXVXVXVXVXVXVXVXVX+ * , R.dXpXp % B g.b.b.g.v.eXeXc.m % p pXgXQ...%.3.3.( 7   VXVXVXVXVXVXVXVXVXVXVXVXVXVXVXVXVXVXVXVXVXVX",
"VXVXVXVXVXVXVXVXVXVXVXVXVXVX@ [ #X#Xy $ D :.g.c.b.2Xb.c.;.d o y #X$XH.%.*.$./ K 4 o VXVXVXVXVXVXVXVXVXVXVXVXVXVXVXVXVXVXVXVXVXVX",
"VXVXVXVXVXVXVXVXVXVXVXVXVXVX  e B.V.Q b n M G d.z.b.s.M j , q Q B.B.N.1.1./ R 8 * + VXVXVXVXVXVXVXVXVXVXVXVXVXVXVXVXVXVXVXVXVXVX",
"VXVXVXVXVXVXVXVXVXVXVXVXVXVX  J %.L.J.n.e - j H a.a.B j $ 7 n.H.S.N.A.$./ R b $ VXVXVXVXVXVXVXVXVXVXVXVXVXVXVXVXVXVXVXVXVXVXVXVX",
"VXVXVXVXVXVXVXVXVXVXVXVXVXVX  7 E Z.K.H.] 7 s g c c g 1 7 ] H.K.A.#.$./ R 6 $   VXVXVXVXVXVXVXVXVXVXVXVXVXVXVXVXVXVXVXVXVXVXVXVX",
"VXVXVXVXVXVXVXVXVXVXVXVXVXVXVXVX3 E S.L.H.n.9 o $ & O r n.H.J.S.A.$./ R 9 $ VXVXVXVXVXVXVXVXVXVXVXVXVXVXVXVXVXVXVXVXVXVXVXVXVXVX",
"VXVXVXVXVXVXVXVXVXVXVXVXVXVXVXVX  3 R 1.H.J.] t r t 7 P G.K.3.,.$./ R 8 $   VXVXVXVXVXVXVXVXVXVXVXVXVXVXVXVXVXVXVXVXVXVXVXVXVXVX",
"VXVXVXVXVXVXVXVXVXVXVXVXVXVXVXVXVXVX7 J r ] D.H.H.D.1./ / ( ( E E E b $ VXVXVXVXVXVXVXVXVXVXVXVXVXVXVXVXVXVXVXVXVXVXVXVXVXVXVXVX",
"VXVXVXVXVXVXVXVXVXVXVXVXVXVXVXVXVXVX      t Z.P.H.G.3.( K 8 b b K 0 =   VXVXVXVXVXVXVXVXVXVXVXVXVXVXVXVXVXVXVXVXVXVXVXVXVXVXVXVX",
"VXVXVXVXVXVXVXVXVXVXVXVXVXVXVXVXVXVXVXVXVXVXr P L L L 0 4 < 4 4 4 * VXVXVXVXVXVXVXVXVXVXVXVXVXVXVXVXVXVXVXVXVXVXVXVXVXVXVXVXVXVX",
"VXVXVXVXVXVXVXVXVXVXVXVXVXVXVXVXVXVXVXVXVXVX            O + + + + + VXVXVXVXVXVXVXVXVXVXVXVXVXVXVXVXVXVXVXVXVXVXVXVXVXVXVXVXVXVX",
"VXVXVXVXVXVXVXVXVXVXVXVXVXVXVXVXVXVXVXVXVXVXVXVXVXVXVXVXVXVXVXVXVXVXVXVXVXVXVXVXVXVXVXVXVXVXVXVXVXVXVXVXVXVXVXVXVXVXVXVXVXVXVXVX",
"VXVXVXVXVXVXVXVXVXVXVXVXVXVXVXVXVXVXVXVXVXVXVXVXVXVXVXVXVXVXVXVXVXVXVXVXVXVXVXVXVXVXVXVXVXVXVXVXVXVXVXVXVXVXVXVXVXVXVXVXVXVXVXVX",
"VXVXVXVXVXVXVXVXVXVXVXVXVXVXVXVXVXVXVXVXVXVXVXVXVXVXVXVXVXVXVXVXVXVXVXVXVXVXVXVXVXVXVXVXVXVXVXVXVXVXVXVXVXVXVXVXVXVXVXVXVXVXVXVX",
"VXVXVXVXVXVXVXVXVXVXVXVXVXVXVXVXVXVXVXVXVXVXVXVXVXVXVXVXVXVXVXVXVXVXVXVXVXVXVXVXVXVXVXVXVXVXVXVXVXVXVXVXVXVXVXVXVXVXVXVXVXVXVXVX",
"VXVXVXVXVXVXVXVXVXVXVXVXVXVXVXVXVXVXVXVXVXVXVXVXVXVXVXVXVXVXVXVXVXVXVXVXVXVXVXVXVXVXVXVXVXVXVXVXVXVXVXVXVXVXVXVXVXVXVXVXVXVXVXVX",
"VXVXVXVXVXVXVXVXVXVXVXVXVXVXVXVXVXVXVXVXVXVXVXVXVXVXVXVXVXVXVXVXVXVXVXVXVXVXVXVXVXVXVXVXVXVXVXVXVXVXVXVXVXVXVXVXVXVXVXVXVXVXVXVX",
"VXVXVXVXVXVXVXVXVXVXVXVXVXVXVXVXVXVXVXVXVXVXVXVXVXVXVXVXVXVXVXVXVXVXVXVXVXVXVXVXVXVXVXVXVXVXVXVXVXVXVXVXVXVXVXVXVXVXVXVXVXVXVXVX",
"VXVXVXVXVXVXVXVXVXVXVXVXVXVXVXVXVXVXVXVXVXVXVXVXVXVXVXVXVXVXVXVXVXVXVXVXVXVXVXVXVXVXVXVXVXVXVXVXVXVXVXVXVXVXVXVXVXVXVXVXVXVXVXVX"
};
